<svg width="367" height="100" viewBox="0 0 367 100" fill="none" xmlns="http://www.w3.org/2000/svg">
<rect width="367" height="100" rx="5" fill="url(#paint0_linear_9_20)"/>
<path d="M110.032 45.08C109.2 45.08 108.443 44.92 107.76 44.6C107.088 44.28 106.507 43.848 106.016 43.304C105.536 42.7493 105.163 42.1307 104.896 41.448C104.629 40.7547 104.496 40.0453 104.496 39.32C104.496 38.5627 104.635 37.8427 104.912 37.16C105.2 36.4667 105.589 35.8533 106.08 35.32C106.581 34.776 107.168 34.3493 107.84 34.04C108.523 33.72 109.269 33.56 110.08 33.56C110.901 33.56 111.648 33.7253 112.32 34.056C113.003 34.3867 113.584 34.8293 114.064 35.384C114.544 35.9387 114.917 36.5573 115.184 37.24C115.451 37.9227 115.584 38.6267 115.584 39.352C115.584 40.0987 115.445 40.8187 115.168 41.512C114.891 42.1947 114.501 42.808 114 43.352C113.509 43.8853 112.923 44.3067 112.24 44.616C111.568 44.9253 110.832 45.08 110.032 45.08ZM106.736 39.32C106.736 39.8107 106.811 40.2853 106.96 40.744C107.109 41.2027 107.323 41.6133 107.6 41.976C107.888 42.328 108.235 42.6107 108.64 42.824C109.056 43.0267 109.525 43.128 110.048 43.128C110.581 43.128 111.056 43.0213 111.472 42.808C111.888 42.584 112.235 42.2907 112.512 41.928C112.789 41.5547 112.997 41.144 113.136 40.696C113.285 40.2373 113.36 39.7787 113.36 39.32C113.36 38.8293 113.28 38.36 113.12 37.912C112.971 37.4533 112.752 37.048 112.464 36.696C112.187 36.3333 111.84 36.0507 111.424 35.848C111.019 35.6347 110.56 35.528 110.048 35.528C109.504 35.528 109.024 35.64 108.608 35.864C108.203 36.0773 107.861 36.3653 107.584 36.728C107.307 37.0907 107.093 37.496 106.944 37.944C106.805 38.392 106.736 38.8507 106.736 39.32ZM119.006 45V38.488H116.35V36.616H123.822V38.488H121.15V45H119.006ZM124.415 45.112V43.208C124.671 43.1973 124.9 43.1333 125.103 43.016C125.306 42.8987 125.482 42.7013 125.631 42.424C125.791 42.136 125.914 41.736 125.999 41.224C126.095 40.712 126.159 40.056 126.191 39.256L126.303 36.616H132.591V45H130.447V38.488H128.191L128.159 39.464C128.116 40.5627 128.01 41.4747 127.839 42.2C127.668 42.9253 127.428 43.5013 127.119 43.928C126.82 44.344 126.447 44.6427 125.999 44.824C125.551 45.0053 125.023 45.1013 124.415 45.112ZM134.539 45V36.632H136.683V42.136L140.443 36.616H142.395V45H140.251V39.624L136.539 45H134.539ZM149.023 45V41.992C148.703 42.1307 148.378 42.232 148.047 42.296C147.727 42.36 147.359 42.392 146.943 42.392C146.058 42.392 145.364 42.1573 144.863 41.688C144.362 41.208 144.111 40.5093 144.111 39.592V36.616H146.255V39.304C146.255 39.8053 146.362 40.1733 146.575 40.408C146.799 40.6427 147.14 40.76 147.599 40.76C147.855 40.76 148.111 40.7333 148.367 40.68C148.623 40.6267 148.842 40.552 149.023 40.456V36.616H151.183V45H149.023ZM153.132 45V36.616H155.276V39.816H158.668V36.616H160.812V45H158.668V41.608H155.276V45H153.132ZM166.645 45.16C165.962 45.16 165.349 45.048 164.805 44.824C164.261 44.5893 163.797 44.2693 163.413 43.864C163.04 43.4587 162.752 42.9947 162.549 42.472C162.346 41.9493 162.245 41.4 162.245 40.824C162.245 40.2373 162.346 39.6827 162.549 39.16C162.752 38.6373 163.04 38.1733 163.413 37.768C163.797 37.3627 164.261 37.048 164.805 36.824C165.349 36.5893 165.962 36.472 166.645 36.472C167.328 36.472 167.936 36.5893 168.469 36.824C169.013 37.048 169.477 37.3627 169.861 37.768C170.245 38.1733 170.533 38.6373 170.725 39.16C170.928 39.6827 171.029 40.2373 171.029 40.824C171.029 41.4 170.928 41.9493 170.725 42.472C170.533 42.9947 170.245 43.4587 169.861 43.864C169.488 44.2693 169.029 44.5893 168.485 44.824C167.941 45.048 167.328 45.16 166.645 45.16ZM164.453 40.824C164.453 41.3147 164.549 41.752 164.741 42.136C164.933 42.5093 165.194 42.8027 165.525 43.016C165.856 43.2293 166.229 43.336 166.645 43.336C167.05 43.336 167.418 43.2293 167.749 43.016C168.08 42.792 168.341 42.4933 168.533 42.12C168.736 41.736 168.837 41.2987 168.837 40.808C168.837 40.328 168.736 39.896 168.533 39.512C168.341 39.128 168.08 38.8293 167.749 38.616C167.418 38.4027 167.05 38.296 166.645 38.296C166.229 38.296 165.856 38.408 165.525 38.632C165.194 38.8453 164.933 39.144 164.741 39.528C164.549 39.9013 164.453 40.3333 164.453 40.824ZM180.192 45.16C179.509 45.16 178.896 45.048 178.352 44.824C177.808 44.5893 177.344 44.2693 176.96 43.864C176.586 43.4587 176.298 42.9947 176.096 42.472C175.893 41.9493 175.792 41.4 175.792 40.824C175.792 40.2373 175.893 39.6827 176.096 39.16C176.298 38.6373 176.586 38.1733 176.96 37.768C177.344 37.3627 177.808 37.048 178.352 36.824C178.896 36.5893 179.509 36.472 180.192 36.472C180.874 36.472 181.482 36.5893 182.016 36.824C182.56 37.048 183.024 37.3627 183.408 37.768C183.792 38.1733 184.08 38.6373 184.272 39.16C184.474 39.6827 184.576 40.2373 184.576 40.824C184.576 41.4 184.474 41.9493 184.272 42.472C184.08 42.9947 183.792 43.4587 183.408 43.864C183.034 44.2693 182.576 44.5893 182.032 44.824C181.488 45.048 180.874 45.16 180.192 45.16ZM178 40.824C178 41.3147 178.096 41.752 178.288 42.136C178.48 42.5093 178.741 42.8027 179.072 43.016C179.402 43.2293 179.776 43.336 180.192 43.336C180.597 43.336 180.965 43.2293 181.296 43.016C181.626 42.792 181.888 42.4933 182.08 42.12C182.282 41.736 182.384 41.2987 182.384 40.808C182.384 40.328 182.282 39.896 182.08 39.512C181.888 39.128 181.626 38.8293 181.296 38.616C180.965 38.4027 180.597 38.296 180.192 38.296C179.776 38.296 179.402 38.408 179.072 38.632C178.741 38.8453 178.48 39.144 178.288 39.528C178.096 39.9013 178 40.3333 178 40.824ZM190.199 45.16C188.759 45.16 187.666 44.7387 186.919 43.896C186.183 43.0427 185.815 41.8 185.815 40.168C185.815 39.144 185.906 38.28 186.087 37.576C186.268 36.872 186.535 36.2907 186.887 35.832C187.239 35.3733 187.682 35 188.215 34.712C188.759 34.424 189.383 34.1947 190.087 34.024L193.687 33.112L193.719 34.856L190.167 35.784C189.655 35.9333 189.207 36.1413 188.823 36.408C188.439 36.664 188.13 37 187.895 37.416C187.671 37.8213 187.527 38.3333 187.463 38.952C187.783 38.4293 188.22 38.0187 188.775 37.72C189.33 37.4107 190.002 37.256 190.791 37.256C191.538 37.256 192.194 37.416 192.759 37.736C193.324 38.056 193.762 38.4987 194.071 39.064C194.391 39.6293 194.551 40.2853 194.551 41.032C194.551 41.832 194.38 42.5467 194.039 43.176C193.708 43.7947 193.218 44.28 192.567 44.632C191.927 44.984 191.138 45.16 190.199 45.16ZM190.199 43.336C190.86 43.336 191.383 43.1387 191.767 42.744C192.162 42.3387 192.359 41.8053 192.359 41.144C192.359 40.504 192.167 39.9813 191.783 39.576C191.399 39.1707 190.871 38.968 190.199 38.968C189.783 38.968 189.41 39.0533 189.079 39.224C188.759 39.3947 188.503 39.6453 188.311 39.976C188.119 40.296 188.023 40.6853 188.023 41.144C188.023 41.5707 188.108 41.9493 188.279 42.28C188.45 42.6107 188.695 42.872 189.015 43.064C189.346 43.2453 189.74 43.336 190.199 43.336ZM199.848 45.16C199.165 45.16 198.552 45.048 198.008 44.824C197.464 44.5893 197 44.2693 196.616 43.864C196.243 43.4587 195.955 42.9947 195.752 42.472C195.549 41.9493 195.448 41.4 195.448 40.824C195.448 40.2373 195.549 39.6827 195.752 39.16C195.955 38.6373 196.243 38.1733 196.616 37.768C197 37.3627 197.464 37.048 198.008 36.824C198.552 36.5893 199.165 36.472 199.848 36.472C200.531 36.472 201.139 36.5893 201.672 36.824C202.216 37.048 202.68 37.3627 203.064 37.768C203.448 38.1733 203.736 38.6373 203.928 39.16C204.131 39.6827 204.232 40.2373 204.232 40.824C204.232 41.4 204.131 41.9493 203.928 42.472C203.736 42.9947 203.448 43.4587 203.064 43.864C202.691 44.2693 202.232 44.5893 201.688 44.824C201.144 45.048 200.531 45.16 199.848 45.16ZM197.656 40.824C197.656 41.3147 197.752 41.752 197.944 42.136C198.136 42.5093 198.397 42.8027 198.728 43.016C199.059 43.2293 199.432 43.336 199.848 43.336C200.253 43.336 200.621 43.2293 200.952 43.016C201.283 42.792 201.544 42.4933 201.736 42.12C201.939 41.736 202.04 41.2987 202.04 40.808C202.04 40.328 201.939 39.896 201.736 39.512C201.544 39.128 201.283 38.8293 200.952 38.616C200.621 38.4027 200.253 38.296 199.848 38.296C199.432 38.296 199.059 38.408 198.728 38.632C198.397 38.8453 198.136 39.144 197.944 39.528C197.752 39.9013 197.656 40.3333 197.656 40.824ZM210.703 45.16C210.052 45.16 209.476 45.016 208.975 44.728C208.484 44.4293 208.1 44.0293 207.823 43.528V48.408H205.679V36.616H207.551V38.056C207.871 37.5653 208.276 37.1813 208.767 36.904C209.258 36.616 209.818 36.472 210.447 36.472C211.012 36.472 211.53 36.584 211.999 36.808C212.479 37.032 212.895 37.3467 213.247 37.752C213.599 38.1467 213.871 38.6053 214.063 39.128C214.266 39.64 214.367 40.1947 214.367 40.792C214.367 41.6027 214.207 42.3387 213.887 43C213.578 43.6613 213.146 44.1893 212.591 44.584C212.047 44.968 211.418 45.16 210.703 45.16ZM209.983 43.336C210.314 43.336 210.612 43.2667 210.879 43.128C211.146 42.9893 211.375 42.8027 211.567 42.568C211.77 42.3227 211.919 42.0507 212.015 41.752C212.122 41.4427 212.175 41.1227 212.175 40.792C212.175 40.44 212.116 40.1147 211.999 39.816C211.892 39.5173 211.732 39.256 211.519 39.032C211.306 38.7973 211.055 38.616 210.767 38.488C210.49 38.36 210.186 38.296 209.855 38.296C209.652 38.296 209.444 38.3333 209.231 38.408C209.028 38.472 208.831 38.568 208.639 38.696C208.447 38.824 208.276 38.9733 208.127 39.144C207.988 39.3147 207.887 39.5013 207.823 39.704V41.672C207.951 41.9813 208.122 42.264 208.335 42.52C208.559 42.776 208.815 42.9787 209.103 43.128C209.391 43.2667 209.684 43.336 209.983 43.336ZM216.787 48.616C216.563 48.616 216.333 48.5893 216.099 48.536C215.875 48.4827 215.613 48.4027 215.315 48.296L215.731 46.6C215.891 46.6747 216.04 46.728 216.179 46.76C216.328 46.792 216.461 46.808 216.579 46.808C216.845 46.808 217.08 46.712 217.283 46.52C217.496 46.328 217.667 46.0347 217.795 45.64L218.051 44.952L214.659 36.616H216.883L219.139 42.808L221.123 36.616H223.171L219.747 46.2C219.565 46.712 219.325 47.144 219.027 47.496C218.728 47.8587 218.387 48.136 218.003 48.328C217.619 48.52 217.213 48.616 216.787 48.616ZM223.647 47.032V43.128H223.871C224.085 43.128 224.282 43.0693 224.463 42.952C224.655 42.8347 224.821 42.6373 224.959 42.36C225.109 42.072 225.226 41.6773 225.311 41.176C225.407 40.6747 225.471 40.0347 225.503 39.256L225.599 36.616H231.887V43.128H233.055V47.032H231.183V45H225.535V47.032H223.647ZM226.575 43.128H229.743V38.424H227.471L227.423 39.464C227.391 40.168 227.338 40.7653 227.263 41.256C227.199 41.736 227.109 42.1307 226.991 42.44C226.885 42.7387 226.746 42.968 226.575 43.128ZM238.317 45.16C237.634 45.16 237.021 45.048 236.477 44.824C235.933 44.5893 235.469 44.2693 235.085 43.864C234.711 43.4587 234.423 42.9947 234.221 42.472C234.018 41.9493 233.917 41.4 233.917 40.824C233.917 40.2373 234.018 39.6827 234.221 39.16C234.423 38.6373 234.711 38.1733 235.085 37.768C235.469 37.3627 235.933 37.048 236.477 36.824C237.021 36.5893 237.634 36.472 238.317 36.472C238.999 36.472 239.607 36.5893 240.141 36.824C240.685 37.048 241.149 37.3627 241.533 37.768C241.917 38.1733 242.205 38.6373 242.397 39.16C242.599 39.6827 242.701 40.2373 242.701 40.824C242.701 41.4 242.599 41.9493 242.397 42.472C242.205 42.9947 241.917 43.4587 241.533 43.864C241.159 44.2693 240.701 44.5893 240.157 44.824C239.613 45.048 238.999 45.16 238.317 45.16ZM236.125 40.824C236.125 41.3147 236.221 41.752 236.413 42.136C236.605 42.5093 236.866 42.8027 237.197 43.016C237.527 43.2293 237.901 43.336 238.317 43.336C238.722 43.336 239.09 43.2293 239.421 43.016C239.751 42.792 240.013 42.4933 240.205 42.12C240.407 41.736 240.509 41.2987 240.509 40.808C240.509 40.328 240.407 39.896 240.205 39.512C240.013 39.128 239.751 38.8293 239.421 38.616C239.09 38.4027 238.722 38.296 238.317 38.296C237.901 38.296 237.527 38.408 237.197 38.632C236.866 38.8453 236.605 39.144 236.413 39.528C236.221 39.9013 236.125 40.3333 236.125 40.824ZM244.148 45V36.616H248.82C249.396 36.616 249.86 36.712 250.212 36.904C250.575 37.096 250.841 37.3467 251.012 37.656C251.183 37.9653 251.268 38.296 251.268 38.648C251.268 39.1173 251.161 39.528 250.948 39.88C250.745 40.232 250.425 40.504 249.988 40.696C250.479 40.8347 250.879 41.0747 251.188 41.416C251.497 41.7467 251.652 42.184 251.652 42.728C251.652 43.2507 251.529 43.6827 251.284 44.024C251.039 44.3547 250.687 44.6 250.228 44.76C249.769 44.92 249.225 45 248.596 45H244.148ZM246.18 43.544H248.532C248.724 43.544 248.9 43.496 249.06 43.4C249.22 43.304 249.343 43.176 249.428 43.016C249.524 42.856 249.572 42.68 249.572 42.488C249.572 42.2853 249.529 42.1093 249.444 41.96C249.359 41.8 249.236 41.6773 249.076 41.592C248.927 41.496 248.751 41.448 248.548 41.448H246.18V43.544ZM246.18 40.104H248.276C248.468 40.104 248.639 40.056 248.788 39.96C248.937 39.864 249.049 39.736 249.124 39.576C249.209 39.416 249.252 39.24 249.252 39.048C249.252 38.7707 249.161 38.5413 248.98 38.36C248.809 38.168 248.58 38.072 248.292 38.072H246.18V40.104ZM252.634 42.52C252.634 41.976 252.784 41.5013 253.082 41.096C253.392 40.68 253.818 40.36 254.362 40.136C254.906 39.912 255.53 39.8 256.234 39.8C256.586 39.8 256.944 39.8267 257.306 39.88C257.669 39.9333 257.984 40.0187 258.25 40.136V39.688C258.25 39.1547 258.09 38.744 257.77 38.456C257.461 38.168 256.997 38.024 256.378 38.024C255.92 38.024 255.482 38.104 255.066 38.264C254.65 38.424 254.213 38.6587 253.754 38.968L253.066 37.56C253.621 37.1973 254.186 36.9253 254.762 36.744C255.349 36.5627 255.962 36.472 256.602 36.472C257.797 36.472 258.725 36.7707 259.386 37.368C260.058 37.9653 260.394 38.8187 260.394 39.928V42.6C260.394 42.824 260.432 42.984 260.506 43.08C260.592 43.176 260.725 43.2347 260.906 43.256V45C260.714 45.032 260.538 45.0587 260.378 45.08C260.229 45.1013 260.101 45.112 259.994 45.112C259.568 45.112 259.242 45.016 259.018 44.824C258.805 44.632 258.672 44.3973 258.618 44.12L258.57 43.688C258.208 44.1573 257.754 44.52 257.21 44.776C256.666 45.032 256.112 45.16 255.546 45.16C254.992 45.16 254.49 45.048 254.042 44.824C253.605 44.5893 253.258 44.2747 253.002 43.88C252.757 43.4747 252.634 43.0213 252.634 42.52ZM257.85 42.952C257.968 42.824 258.064 42.696 258.138 42.568C258.213 42.44 258.25 42.3227 258.25 42.216V41.368C257.994 41.2613 257.717 41.1813 257.418 41.128C257.12 41.064 256.837 41.032 256.57 41.032C256.016 41.032 255.557 41.1547 255.194 41.4C254.842 41.6347 254.666 41.9493 254.666 42.344C254.666 42.5573 254.725 42.76 254.842 42.952C254.96 43.144 255.13 43.2987 255.354 43.416C255.578 43.5333 255.845 43.592 256.154 43.592C256.474 43.592 256.789 43.5333 257.098 43.416C257.408 43.288 257.658 43.1333 257.85 42.952ZM262.398 45V36.616H264.542V39.816H267.934V36.616H270.078V45H267.934V41.608H264.542V45H262.398ZM272.039 45V36.616H274.183V39.816H277.575V36.616H279.719V45H277.575V41.608H274.183V45H272.039ZM281.679 45V36.616H283.823V39.256H285.295C286.308 39.256 287.082 39.512 287.615 40.024C288.148 40.536 288.415 41.2133 288.415 42.056C288.415 42.6213 288.298 43.128 288.063 43.576C287.839 44.024 287.508 44.376 287.071 44.632C286.634 44.8773 286.09 45 285.439 45H281.679ZM283.823 43.368H285.103C285.402 43.368 285.642 43.3093 285.823 43.192C286.004 43.0747 286.138 42.92 286.223 42.728C286.319 42.536 286.367 42.3173 286.367 42.072C286.367 41.8373 286.324 41.6293 286.239 41.448C286.154 41.256 286.015 41.1067 285.823 41C285.642 40.8827 285.396 40.824 285.087 40.824H283.823V43.368ZM289.727 45V36.632H291.871V45H289.727ZM297.723 45.16C297.051 45.16 296.443 45.048 295.899 44.824C295.355 44.5893 294.891 44.2747 294.507 43.88C294.123 43.4747 293.825 43.016 293.611 42.504C293.409 41.9813 293.307 41.432 293.307 40.856C293.307 40.056 293.483 39.3253 293.835 38.664C294.198 38.0027 294.71 37.4747 295.371 37.08C296.043 36.6747 296.833 36.472 297.739 36.472C298.657 36.472 299.441 36.6747 300.091 37.08C300.742 37.4747 301.238 38.0027 301.579 38.664C301.931 39.3147 302.107 40.0187 302.107 40.776C302.107 40.904 302.102 41.0373 302.091 41.176C302.081 41.304 302.07 41.4107 302.059 41.496H295.579C295.622 41.9227 295.745 42.296 295.947 42.616C296.161 42.936 296.427 43.1813 296.747 43.352C297.078 43.512 297.43 43.592 297.803 43.592C298.23 43.592 298.63 43.4907 299.003 43.288C299.387 43.0747 299.649 42.7973 299.787 42.456L301.627 42.968C301.425 43.3947 301.131 43.7733 300.747 44.104C300.374 44.4347 299.931 44.696 299.419 44.888C298.907 45.0693 298.342 45.16 297.723 45.16ZM295.531 40.136H299.915C299.873 39.7093 299.75 39.3413 299.547 39.032C299.355 38.712 299.099 38.4667 298.779 38.296C298.459 38.1147 298.102 38.024 297.707 38.024C297.323 38.024 296.971 38.1147 296.651 38.296C296.342 38.4667 296.086 38.712 295.883 39.032C295.691 39.3413 295.574 39.7093 295.531 40.136ZM108.848 67.16C108.165 67.16 107.552 67.048 107.008 66.824C106.464 66.5893 106 66.2693 105.616 65.864C105.243 65.4587 104.955 64.9947 104.752 64.472C104.549 63.9493 104.448 63.4 104.448 62.824C104.448 62.2373 104.549 61.6827 104.752 61.16C104.955 60.6373 105.243 60.1733 105.616 59.768C106 59.3627 106.464 59.048 107.008 58.824C107.552 58.5893 108.165 58.472 108.848 58.472C109.531 58.472 110.139 58.5893 110.672 58.824C111.216 59.048 111.68 59.3627 112.064 59.768C112.448 60.1733 112.736 60.6373 112.928 61.16C113.131 61.6827 113.232 62.2373 113.232 62.824C113.232 63.4 113.131 63.9493 112.928 64.472C112.736 64.9947 112.448 65.4587 112.064 65.864C111.691 66.2693 111.232 66.5893 110.688 66.824C110.144 67.048 109.531 67.16 108.848 67.16ZM106.656 62.824C106.656 63.3147 106.752 63.752 106.944 64.136C107.136 64.5093 107.397 64.8027 107.728 65.016C108.059 65.2293 108.432 65.336 108.848 65.336C109.253 65.336 109.621 65.2293 109.952 65.016C110.283 64.792 110.544 64.4933 110.736 64.12C110.939 63.736 111.04 63.2987 111.04 62.808C111.04 62.328 110.939 61.896 110.736 61.512C110.544 61.128 110.283 60.8293 109.952 60.616C109.621 60.4027 109.253 60.296 108.848 60.296C108.432 60.296 108.059 60.408 107.728 60.632C107.397 60.8453 107.136 61.144 106.944 61.528C106.752 61.9013 106.656 62.3333 106.656 62.824ZM114.679 67V58.616H122.199V67H120.055V60.488H116.823V67H114.679ZM128.036 67.16C127.364 67.16 126.756 67.048 126.212 66.824C125.668 66.5893 125.204 66.2747 124.82 65.88C124.436 65.4747 124.137 65.016 123.924 64.504C123.721 63.9813 123.62 63.432 123.62 62.856C123.62 62.056 123.796 61.3253 124.148 60.664C124.511 60.0027 125.023 59.4747 125.684 59.08C126.356 58.6747 127.145 58.472 128.052 58.472C128.969 58.472 129.753 58.6747 130.404 59.08C131.055 59.4747 131.551 60.0027 131.892 60.664C132.244 61.3147 132.42 62.0187 132.42 62.776C132.42 62.904 132.415 63.0373 132.404 63.176C132.393 63.304 132.383 63.4107 132.372 63.496H125.892C125.935 63.9227 126.057 64.296 126.26 64.616C126.473 64.936 126.74 65.1813 127.06 65.352C127.391 65.512 127.743 65.592 128.116 65.592C128.543 65.592 128.943 65.4907 129.316 65.288C129.7 65.0747 129.961 64.7973 130.1 64.456L131.94 64.968C131.737 65.3947 131.444 65.7733 131.06 66.104C130.687 66.4347 130.244 66.696 129.732 66.888C129.22 67.0693 128.655 67.16 128.036 67.16ZM125.844 62.136H130.228C130.185 61.7093 130.063 61.3413 129.86 61.032C129.668 60.712 129.412 60.4667 129.092 60.296C128.772 60.1147 128.415 60.024 128.02 60.024C127.636 60.024 127.284 60.1147 126.964 60.296C126.655 60.4667 126.399 60.712 126.196 61.032C126.004 61.3413 125.887 61.7093 125.844 62.136ZM138.75 67.16C138.099 67.16 137.523 67.016 137.022 66.728C136.531 66.4293 136.147 66.0293 135.87 65.528V70.408H133.726V58.616H135.598V60.056C135.918 59.5653 136.323 59.1813 136.814 58.904C137.305 58.616 137.865 58.472 138.494 58.472C139.059 58.472 139.577 58.584 140.046 58.808C140.526 59.032 140.942 59.3467 141.294 59.752C141.646 60.1467 141.918 60.6053 142.11 61.128C142.313 61.64 142.414 62.1947 142.414 62.792C142.414 63.6027 142.254 64.3387 141.934 65C141.625 65.6613 141.193 66.1893 140.638 66.584C140.094 66.968 139.465 67.16 138.75 67.16ZM138.03 65.336C138.361 65.336 138.659 65.2667 138.926 65.128C139.193 64.9893 139.422 64.8027 139.614 64.568C139.817 64.3227 139.966 64.0507 140.062 63.752C140.169 63.4427 140.222 63.1227 140.222 62.792C140.222 62.44 140.163 62.1147 140.046 61.816C139.939 61.5173 139.779 61.256 139.566 61.032C139.353 60.7973 139.102 60.616 138.814 60.488C138.537 60.36 138.233 60.296 137.902 60.296C137.699 60.296 137.491 60.3333 137.278 60.408C137.075 60.472 136.878 60.568 136.686 60.696C136.494 60.824 136.323 60.9733 136.174 61.144C136.035 61.3147 135.934 61.5013 135.87 61.704V63.672C135.998 63.9813 136.169 64.264 136.382 64.52C136.606 64.776 136.862 64.9787 137.15 65.128C137.438 65.2667 137.731 65.336 138.03 65.336ZM143.291 64.52C143.291 63.976 143.44 63.5013 143.739 63.096C144.048 62.68 144.475 62.36 145.019 62.136C145.563 61.912 146.187 61.8 146.891 61.8C147.243 61.8 147.6 61.8267 147.963 61.88C148.325 61.9333 148.64 62.0187 148.907 62.136V61.688C148.907 61.1547 148.747 60.744 148.427 60.456C148.117 60.168 147.653 60.024 147.035 60.024C146.576 60.024 146.139 60.104 145.723 60.264C145.307 60.424 144.869 60.6587 144.411 60.968L143.723 59.56C144.277 59.1973 144.843 58.9253 145.419 58.744C146.005 58.5627 146.619 58.472 147.259 58.472C148.453 58.472 149.381 58.7707 150.043 59.368C150.715 59.9653 151.051 60.8187 151.051 61.928V64.6C151.051 64.824 151.088 64.984 151.163 65.08C151.248 65.176 151.381 65.2347 151.563 65.256V67C151.371 67.032 151.195 67.0587 151.035 67.08C150.885 67.1013 150.757 67.112 150.651 67.112C150.224 67.112 149.899 67.016 149.675 66.824C149.461 66.632 149.328 66.3973 149.275 66.12L149.227 65.688C148.864 66.1573 148.411 66.52 147.867 66.776C147.323 67.032 146.768 67.16 146.203 67.16C145.648 67.16 145.147 67.048 144.699 66.824C144.261 66.5893 143.915 66.2747 143.659 65.88C143.413 65.4747 143.291 65.0213 143.291 64.52ZM148.507 64.952C148.624 64.824 148.72 64.696 148.795 64.568C148.869 64.44 148.907 64.3227 148.907 64.216V63.368C148.651 63.2613 148.373 63.1813 148.075 63.128C147.776 63.064 147.493 63.032 147.227 63.032C146.672 63.032 146.213 63.1547 145.851 63.4C145.499 63.6347 145.323 63.9493 145.323 64.344C145.323 64.5573 145.381 64.76 145.499 64.952C145.616 65.144 145.787 65.2987 146.011 65.416C146.235 65.5333 146.501 65.592 146.811 65.592C147.131 65.592 147.445 65.5333 147.755 65.416C148.064 65.288 148.315 65.1333 148.507 64.952ZM159.582 69.032V67H153.054V58.616H155.198V65.128H158.142V58.616H160.286V65.128H161.47V69.032H159.582ZM162.867 67V58.632H165.011V64.136L168.771 58.616H170.723V67H168.579V61.624L164.867 67H162.867ZM176.551 67.16C175.868 67.16 175.255 67.048 174.711 66.824C174.167 66.5893 173.703 66.2693 173.319 65.864C172.946 65.4587 172.658 64.9947 172.455 64.472C172.252 63.9493 172.151 63.4 172.151 62.824C172.151 62.2373 172.252 61.6827 172.455 61.16C172.658 60.6373 172.946 60.1733 173.319 59.768C173.703 59.3627 174.167 59.048 174.711 58.824C175.255 58.5893 175.868 58.472 176.551 58.472C177.234 58.472 177.842 58.5893 178.375 58.824C178.919 59.048 179.383 59.3627 179.767 59.768C180.151 60.1733 180.439 60.6373 180.631 61.16C180.834 61.6827 180.935 62.2373 180.935 62.824C180.935 63.4 180.834 63.9493 180.631 64.472C180.439 64.9947 180.151 65.4587 179.767 65.864C179.394 66.2693 178.935 66.5893 178.391 66.824C177.847 67.048 177.234 67.16 176.551 67.16ZM174.359 62.824C174.359 63.3147 174.455 63.752 174.647 64.136C174.839 64.5093 175.1 64.8027 175.431 65.016C175.762 65.2293 176.135 65.336 176.551 65.336C176.956 65.336 177.324 65.2293 177.655 65.016C177.986 64.792 178.247 64.4933 178.439 64.12C178.642 63.736 178.743 63.2987 178.743 62.808C178.743 62.328 178.642 61.896 178.439 61.512C178.247 61.128 177.986 60.8293 177.655 60.616C177.324 60.4027 176.956 60.296 176.551 60.296C176.135 60.296 175.762 60.408 175.431 60.632C175.1 60.8453 174.839 61.144 174.647 61.528C174.455 61.9013 174.359 62.3333 174.359 62.824ZM182.382 67V58.616H184.526V61.816H187.918V58.616H190.062V67H187.918V63.608H184.526V67H182.382ZM192.023 67V58.616H194.167V61.816H197.559V58.616H199.703V67H197.559V63.608H194.167V67H192.023ZM201.664 67V58.616H203.808V61.256H205.28C206.293 61.256 207.066 61.512 207.6 62.024C208.133 62.536 208.4 63.2133 208.4 64.056C208.4 64.6213 208.282 65.128 208.048 65.576C207.824 66.024 207.493 66.376 207.056 66.632C206.618 66.8773 206.074 67 205.424 67H201.664ZM203.808 65.368H205.088C205.386 65.368 205.626 65.3093 205.808 65.192C205.989 65.0747 206.122 64.92 206.208 64.728C206.304 64.536 206.352 64.3173 206.352 64.072C206.352 63.8373 206.309 63.6293 206.224 63.448C206.138 63.256 206 63.1067 205.808 63C205.626 62.8827 205.381 62.824 205.072 62.824H203.808V65.368ZM209.712 67V58.632H211.856V67H209.712ZM217.708 67.16C217.036 67.16 216.428 67.048 215.884 66.824C215.34 66.5893 214.876 66.2747 214.492 65.88C214.108 65.4747 213.809 65.016 213.596 64.504C213.393 63.9813 213.292 63.432 213.292 62.856C213.292 62.056 213.468 61.3253 213.82 60.664C214.182 60.0027 214.694 59.4747 215.356 59.08C216.028 58.6747 216.817 58.472 217.724 58.472C218.641 58.472 219.425 58.6747 220.076 59.08C220.726 59.4747 221.222 60.0027 221.564 60.664C221.916 61.3147 222.092 62.0187 222.092 62.776C222.092 62.904 222.086 63.0373 222.076 63.176C222.065 63.304 222.054 63.4107 222.044 63.496H215.564C215.606 63.9227 215.729 64.296 215.932 64.616C216.145 64.936 216.412 65.1813 216.732 65.352C217.062 65.512 217.414 65.592 217.788 65.592C218.214 65.592 218.614 65.4907 218.988 65.288C219.372 65.0747 219.633 64.7973 219.772 64.456L221.612 64.968C221.409 65.3947 221.116 65.7733 220.732 66.104C220.358 66.4347 219.916 66.696 219.404 66.888C218.892 67.0693 218.326 67.16 217.708 67.16ZM215.516 62.136H219.9C219.857 61.7093 219.734 61.3413 219.532 61.032C219.34 60.712 219.084 60.4667 218.764 60.296C218.444 60.1147 218.086 60.024 217.692 60.024C217.308 60.024 216.956 60.1147 216.636 60.296C216.326 60.4667 216.07 60.712 215.868 61.032C215.676 61.3413 215.558 61.7093 215.516 62.136Z" fill="white"/>
<circle cx="49" cy="51" r="35" fill="white"/>
<g clip-path="url(#clip0_9_20)">
<path d="M65.1369 33H47.1789C46.6808 33 46.2756 33.4052 46.2756 33.9033V37.5112C46.2756 37.8106 46.5183 38.0532 46.8176 38.0532C47.1169 38.0532 47.3596 37.8106 47.3596 37.5112V34.084H64.9562V47.0429H47.3596V40.0405C47.3596 39.7411 47.1169 39.4985 46.8176 39.4985C46.5183 39.4985 46.2756 39.7411 46.2756 40.0405V47.2236C46.2756 47.7217 46.6808 48.1269 47.1789 48.1269H47.9659V53.7677H45.5985C45.2997 53.7677 45.0566 53.5246 45.0566 53.2257V45.5627C45.0566 44.6661 44.3272 43.9367 43.4306 43.9367H37.137V43.6736C37.137 43.0667 36.6435 42.573 36.0371 42.573H34.3793C33.7724 42.573 33.2787 43.0667 33.2787 43.6736V47.8175C31.8087 49.1723 30.9598 51.0673 30.9598 53.0932C30.9598 55.5568 32.2144 57.8277 34.3156 59.1677C34.5866 59.3406 34.8972 59.427 35.208 59.427C35.5186 59.427 35.8293 59.3406 36.1002 59.1677C38.2016 57.8276 39.4561 55.5568 39.4561 53.0932C39.4561 51.0673 38.6071 49.1721 37.137 47.8173V47.2334H40.9576C41.2565 47.2334 41.4996 47.4765 41.4996 47.7754V56.3259C41.4996 57.2224 42.229 57.9519 43.1256 57.9519H47.9659V66.1125C47.9659 66.6106 48.3711 67.0158 48.8692 67.0158H50.2519C50.1013 67.2996 50.0156 67.6228 50.0156 67.9659C50.0156 69.0875 50.9281 69.9999 52.0496 69.9999C53.1712 69.9999 54.0837 69.0874 54.0837 67.9659C54.0837 67.6228 53.998 67.2996 53.8474 67.0158H58.4683C58.3177 67.2996 58.2319 67.6228 58.2319 67.9659C58.2319 69.0875 59.1444 69.9999 60.266 69.9999C61.3876 69.9999 62.3001 69.0874 62.3001 67.9659C62.3001 67.6228 62.2144 67.2996 62.0638 67.0158H63.4464C63.9445 67.0158 64.3497 66.6106 64.3497 66.1125V60.7473C64.3497 60.4479 64.1071 60.2053 63.8077 60.2053C63.5083 60.2053 63.2658 60.4479 63.2658 60.7473V65.9318H49.0499V57.9519H53.8599V58.8313H52.6975C52.1994 58.8313 51.7942 59.2365 51.7942 59.7346V63.8587C51.7942 64.3568 52.1994 64.762 52.6975 64.762H59.6183C60.1164 64.762 60.5216 64.3568 60.5216 63.8587V59.7346C60.5216 59.2365 60.1164 58.8313 59.6183 58.8313H58.4558V57.9519H59.6499C60.148 57.9519 60.5532 57.5467 60.5532 57.0486V52.906C61.3099 52.6737 61.8616 51.9686 61.8616 51.1368C61.8616 50.1165 61.0315 49.2865 60.0113 49.2865C58.991 49.2865 58.161 50.1165 58.161 51.1368C58.161 51.9686 58.7127 52.6737 59.4693 52.906V56.8679H58.4559V55.8065C58.4559 55.3088 58.051 54.904 57.5534 54.904H54.7625C54.2649 54.904 53.8599 55.3089 53.8599 55.8065V56.8679H49.0499V54.8517H51.9435C52.4415 54.8517 52.8466 54.4465 52.8466 53.9484V52.906C53.6032 52.6737 54.1548 51.9686 54.1548 51.1368C54.1548 50.1165 53.3247 49.2865 52.3045 49.2865C51.2843 49.2865 50.4542 50.1165 50.4542 51.1368C50.4542 51.9686 51.006 52.6738 51.7627 52.9061V53.7678H49.0499V48.127H63.266V58.218C63.266 58.5174 63.5086 58.76 63.808 58.76C64.1074 58.76 64.35 58.5174 64.35 58.218V48.1269H65.1369C65.6351 48.1269 66.0402 47.7217 66.0402 47.2236V33.9033C66.0402 33.4052 65.6349 33 65.1369 33V33ZM52.9998 67.9659C52.9998 68.4899 52.5736 68.916 52.0497 68.916C51.5258 68.916 51.0996 68.4899 51.0996 67.9659C51.0996 67.442 51.5258 67.0159 52.0497 67.0159C52.5736 67.0159 52.9998 67.442 52.9998 67.9659ZM61.2163 67.9659C61.2163 68.4899 60.7901 68.916 60.2661 68.916C59.7422 68.916 59.3161 68.4899 59.3161 67.9659C59.3161 67.442 59.7422 67.0159 60.2661 67.0159C60.7901 67.0159 61.2163 67.442 61.2163 67.9659ZM60.0113 50.3704C60.4339 50.3704 60.7776 50.7142 60.7776 51.1367C60.7776 51.5593 60.4337 51.9031 60.0112 51.9031C59.5887 51.9031 59.2449 51.5593 59.2449 51.1367C59.2449 50.7142 59.5887 50.3704 60.0113 50.3704ZM59.4376 63.6781H52.8782V59.9153H59.4376V63.6781ZM54.9439 55.988H57.3718V58.8313H54.9439V55.988ZM52.3045 50.3704C52.7271 50.3704 53.0708 50.7142 53.0708 51.1367C53.0708 51.5593 52.7271 51.9031 52.3046 51.9031C51.882 51.9031 51.5381 51.5593 51.5381 51.1367C51.5381 50.7142 51.8819 50.3704 52.3045 50.3704ZM34.3793 43.657H36.0371C36.0457 43.657 36.053 43.6646 36.053 43.6736V46.9909C35.5335 46.6836 34.8821 46.6836 34.3627 46.9911V43.6736C34.3627 43.6643 34.37 43.657 34.3793 43.657ZM38.3721 53.0932C38.3721 55.1846 37.3049 57.1137 35.5173 58.2537C35.3294 58.3737 35.0866 58.3735 34.8985 58.2537C33.111 57.1138 32.0439 55.1846 32.0439 53.0932C32.0439 51.0545 33.0071 49.1389 34.8985 47.9326C34.9926 47.8727 35.1003 47.8427 35.208 47.8427C35.3157 47.8427 35.4234 47.8727 35.5174 47.9326C37.4219 49.1472 38.3721 51.0592 38.3721 53.0932ZM47.9659 56.8679H43.1256C42.8268 56.8679 42.5836 56.6248 42.5836 56.3259V47.7754C42.5836 46.8789 41.8542 46.1495 40.9576 46.1495H37.137V45.0207H43.4306C43.7295 45.0207 43.9726 45.2638 43.9726 45.5627V53.2257C43.9726 54.1222 44.7019 54.8517 45.5985 54.8517H47.9659V56.8679Z" fill="url(#paint1_linear_9_20)"/>
<path d="M58.2797 45.7231C58.8119 45.7231 59.2449 45.2901 59.2449 44.7579V36.3692C59.2449 35.837 58.8119 35.4041 58.2797 35.4041H49.6447C49.1125 35.4041 48.6796 35.837 48.6796 36.3692V44.7578C48.6796 45.2901 49.1125 45.723 49.6447 45.723H58.2797V45.7231ZM49.7635 36.488H58.1609V44.6391H49.7635V36.488Z" fill="url(#paint2_linear_9_20)"/>
<path d="M62.1005 39.8492C63.088 39.8492 63.8913 39.0459 63.8913 38.0586C63.8913 37.0711 63.088 36.2678 62.1005 36.2678C61.1132 36.2678 60.3099 37.0711 60.3099 38.0586C60.3099 39.0459 61.1132 39.8492 62.1005 39.8492ZM62.1005 37.3518C62.4903 37.3518 62.8073 37.6689 62.8073 38.0586C62.8073 38.4482 62.4902 38.7653 62.1005 38.7653C61.7109 38.7653 61.3939 38.4482 61.3939 38.0586C61.3939 37.6689 61.7109 37.3518 62.1005 37.3518Z" fill="url(#paint3_linear_9_20)"/>
<path d="M62.1005 44.8592C63.088 44.8592 63.8913 44.0559 63.8913 43.0686C63.8913 42.0811 63.088 41.2778 62.1005 41.2778C61.1132 41.2778 60.3099 42.0811 60.3099 43.0686C60.3099 44.0559 61.1132 44.8592 62.1005 44.8592ZM62.1005 42.3618C62.4903 42.3618 62.8073 42.6789 62.8073 43.0686C62.8073 43.4582 62.4902 43.7753 62.1005 43.7753C61.7109 43.7753 61.3939 43.4582 61.3939 43.0686C61.3939 42.6789 61.7109 42.3618 62.1005 42.3618Z" fill="url(#paint4_linear_9_20)"/>
<path d="M54.53 42.8232C54.2992 42.8232 54.0934 42.6769 54.0179 42.4585L53.2453 40.2275L53.17 40.3755C53.0775 40.5573 52.8909 40.6717 52.6869 40.6717H51.3399C51.0405 40.6717 50.7979 40.4291 50.7979 40.1297C50.7979 39.8303 51.0405 39.5877 51.3399 39.5877H52.3547L52.8574 38.6C52.956 38.4063 53.1598 38.2906 53.3777 38.3052C53.5944 38.3202 53.7814 38.4632 53.8525 38.6685L54.5187 40.5924L54.7286 39.9591C54.8022 39.7374 55.0094 39.5876 55.243 39.5876H56.5844C56.8838 39.5876 57.1264 39.8302 57.1264 40.1296C57.1264 40.429 56.8838 40.6716 56.5844 40.6716H55.6344L55.0445 42.4516C54.9713 42.6722 54.7659 42.8216 54.5336 42.8232C54.5325 42.8232 54.5312 42.8232 54.53 42.8232Z" fill="url(#paint5_linear_9_20)"/>
</g>
<defs>
<linearGradient id="paint0_linear_9_20" x1="183.5" y1="0" x2="183.5" y2="100" gradientUnits="userSpaceOnUse">
<stop stop-color="#27C8DA"/>
<stop offset="1" stop-color="#24BFD0"/>
</linearGradient>
<linearGradient id="paint1_linear_9_20" x1="48.5" y1="33" x2="48.5" y2="69.9999" gradientUnits="userSpaceOnUse">
<stop stop-color="#27C8DA"/>
<stop offset="1" stop-color="#24BFD0"/>
</linearGradient>
<linearGradient id="paint2_linear_9_20" x1="53.9622" y1="35.4041" x2="53.9622" y2="45.7231" gradientUnits="userSpaceOnUse">
<stop stop-color="#27C8DA"/>
<stop offset="1" stop-color="#24BFD0"/>
</linearGradient>
<linearGradient id="paint3_linear_9_20" x1="62.1006" y1="36.2678" x2="62.1006" y2="39.8492" gradientUnits="userSpaceOnUse">
<stop stop-color="#27C8DA"/>
<stop offset="1" stop-color="#24BFD0"/>
</linearGradient>
<linearGradient id="paint4_linear_9_20" x1="62.1006" y1="41.2778" x2="62.1006" y2="44.8592" gradientUnits="userSpaceOnUse">
<stop stop-color="#27C8DA"/>
<stop offset="1" stop-color="#24BFD0"/>
</linearGradient>
<linearGradient id="paint5_linear_9_20" x1="53.9622" y1="38.304" x2="53.9622" y2="42.8232" gradientUnits="userSpaceOnUse">
<stop stop-color="#27C8DA"/>
<stop offset="1" stop-color="#24BFD0"/>
</linearGradient>
<clipPath id="clip0_9_20">
<rect width="37" height="37" fill="white" transform="translate(30 33)"/>
</clipPath>
</defs>
</svg>
