<svg width="367" height="100" viewBox="0 0 367 100" fill="none" xmlns="http://www.w3.org/2000/svg">
<rect width="367" height="100" rx="5" fill="url(#paint0_linear_9_21)"/>
<path d="M105.216 45V33.64H114.416V45H112.224V35.576H107.408V45H105.216ZM120.473 45.16C119.79 45.16 119.177 45.048 118.633 44.824C118.089 44.5893 117.625 44.2693 117.241 43.864C116.868 43.4587 116.58 42.9947 116.377 42.472C116.174 41.9493 116.073 41.4 116.073 40.824C116.073 40.2373 116.174 39.6827 116.377 39.16C116.58 38.6373 116.868 38.1733 117.241 37.768C117.625 37.3627 118.089 37.048 118.633 36.824C119.177 36.5893 119.79 36.472 120.473 36.472C121.156 36.472 121.764 36.5893 122.297 36.824C122.841 37.048 123.305 37.3627 123.689 37.768C124.073 38.1733 124.361 38.6373 124.553 39.16C124.756 39.6827 124.857 40.2373 124.857 40.824C124.857 41.4 124.756 41.9493 124.553 42.472C124.361 42.9947 124.073 43.4587 123.689 43.864C123.316 44.2693 122.857 44.5893 122.313 44.824C121.769 45.048 121.156 45.16 120.473 45.16ZM118.281 40.824C118.281 41.3147 118.377 41.752 118.569 42.136C118.761 42.5093 119.022 42.8027 119.353 43.016C119.684 43.2293 120.057 43.336 120.473 43.336C120.878 43.336 121.246 43.2293 121.577 43.016C121.908 42.792 122.169 42.4933 122.361 42.12C122.564 41.736 122.665 41.2987 122.665 40.808C122.665 40.328 122.564 39.896 122.361 39.512C122.169 39.128 121.908 38.8293 121.577 38.616C121.246 38.4027 120.878 38.296 120.473 38.296C120.057 38.296 119.684 38.408 119.353 38.632C119.022 38.8453 118.761 39.144 118.569 39.528C118.377 39.9013 118.281 40.3333 118.281 40.824ZM125.696 45.112V43.208C125.952 43.1973 126.181 43.1333 126.384 43.016C126.587 42.8987 126.763 42.7013 126.912 42.424C127.072 42.136 127.195 41.736 127.28 41.224C127.376 40.712 127.44 40.056 127.472 39.256L127.584 36.616H133.872V45H131.728V38.488H129.472L129.44 39.464C129.397 40.5627 129.291 41.4747 129.12 42.2C128.949 42.9253 128.709 43.5013 128.4 43.928C128.101 44.344 127.728 44.6427 127.28 44.824C126.832 45.0053 126.304 45.1013 125.696 45.112ZM135.82 45V36.616H137.964V39.816H141.356V36.616H143.5V45H141.356V41.608H137.964V45H135.82ZM145.46 45V36.616H147.604V39.256H149.076C150.09 39.256 150.863 39.512 151.396 40.024C151.93 40.536 152.196 41.2133 152.196 42.056C152.196 42.6213 152.079 43.128 151.844 43.576C151.62 44.024 151.29 44.376 150.852 44.632C150.415 44.8773 149.871 45 149.22 45H145.46ZM147.604 43.368H148.884C149.183 43.368 149.423 43.3093 149.604 43.192C149.786 43.0747 149.919 42.92 150.004 42.728C150.1 42.536 150.148 42.3173 150.148 42.072C150.148 41.8373 150.106 41.6293 150.02 41.448C149.935 41.256 149.796 41.1067 149.604 41C149.423 40.8827 149.178 40.824 148.868 40.824H147.604V43.368ZM153.508 45V36.632H155.652V45H153.508ZM157.617 45V36.632H159.761V42.136L163.521 36.616H165.473V45H163.329V39.624L159.617 45H157.617ZM161.553 35.832C160.731 35.832 160.086 35.624 159.617 35.208C159.147 34.7813 158.913 34.2373 158.913 33.576H160.241C160.241 33.896 160.347 34.1627 160.561 34.376C160.774 34.5893 161.105 34.696 161.553 34.696C162.001 34.696 162.321 34.5947 162.513 34.392C162.715 34.1893 162.838 33.9173 162.881 33.576H164.209C164.209 34.2373 163.974 34.7813 163.505 35.208C163.035 35.624 162.385 35.832 161.553 35.832ZM171.273 45V36.616H173.417V39.784H174.137L176.409 36.616H178.745L175.769 40.664L179.065 45H176.617L174.105 41.672H173.417V45H171.273ZM183.832 45.16C183.15 45.16 182.536 45.048 181.992 44.824C181.448 44.5893 180.984 44.2693 180.6 43.864C180.227 43.4587 179.939 42.9947 179.736 42.472C179.534 41.9493 179.432 41.4 179.432 40.824C179.432 40.2373 179.534 39.6827 179.736 39.16C179.939 38.6373 180.227 38.1733 180.6 37.768C180.984 37.3627 181.448 37.048 181.992 36.824C182.536 36.5893 183.15 36.472 183.832 36.472C184.515 36.472 185.123 36.5893 185.656 36.824C186.2 37.048 186.664 37.3627 187.048 37.768C187.432 38.1733 187.72 38.6373 187.912 39.16C188.115 39.6827 188.216 40.2373 188.216 40.824C188.216 41.4 188.115 41.9493 187.912 42.472C187.72 42.9947 187.432 43.4587 187.048 43.864C186.675 44.2693 186.216 44.5893 185.672 44.824C185.128 45.048 184.515 45.16 183.832 45.16ZM181.64 40.824C181.64 41.3147 181.736 41.752 181.928 42.136C182.12 42.5093 182.382 42.8027 182.712 43.016C183.043 43.2293 183.416 43.336 183.832 43.336C184.238 43.336 184.606 43.2293 184.936 43.016C185.267 42.792 185.528 42.4933 185.72 42.12C185.923 41.736 186.024 41.2987 186.024 40.808C186.024 40.328 185.923 39.896 185.72 39.512C185.528 39.128 185.267 38.8293 184.936 38.616C184.606 38.4027 184.238 38.296 183.832 38.296C183.416 38.296 183.043 38.408 182.712 38.632C182.382 38.8453 182.12 39.144 181.928 39.528C181.736 39.9013 181.64 40.3333 181.64 40.824ZM189.664 45V36.616H191.808V39.816H195.2V36.616H197.344V45H195.2V41.608H191.808V45H189.664ZM201.24 45V38.488H198.584V36.616H206.056V38.488H203.384V45H201.24ZM212.281 45.16C211.631 45.16 211.055 45.016 210.553 44.728C210.063 44.4293 209.679 44.0293 209.401 43.528V48.408H207.257V36.616H209.129V38.056C209.449 37.5653 209.855 37.1813 210.345 36.904C210.836 36.616 211.396 36.472 212.025 36.472C212.591 36.472 213.108 36.584 213.577 36.808C214.057 37.032 214.473 37.3467 214.825 37.752C215.177 38.1467 215.449 38.6053 215.641 39.128C215.844 39.64 215.945 40.1947 215.945 40.792C215.945 41.6027 215.785 42.3387 215.465 43C215.156 43.6613 214.724 44.1893 214.169 44.584C213.625 44.968 212.996 45.16 212.281 45.16ZM211.561 43.336C211.892 43.336 212.191 43.2667 212.457 43.128C212.724 42.9893 212.953 42.8027 213.145 42.568C213.348 42.3227 213.497 42.0507 213.593 41.752C213.7 41.4427 213.753 41.1227 213.753 40.792C213.753 40.44 213.695 40.1147 213.577 39.816C213.471 39.5173 213.311 39.256 213.097 39.032C212.884 38.7973 212.633 38.616 212.345 38.488C212.068 38.36 211.764 38.296 211.433 38.296C211.231 38.296 211.023 38.3333 210.809 38.408C210.607 38.472 210.409 38.568 210.217 38.696C210.025 38.824 209.855 38.9733 209.705 39.144C209.567 39.3147 209.465 39.5013 209.401 39.704V41.672C209.529 41.9813 209.7 42.264 209.913 42.52C210.137 42.776 210.393 42.9787 210.681 43.128C210.969 43.2667 211.263 43.336 211.561 43.336ZM221.27 45.16C220.587 45.16 219.974 45.048 219.43 44.824C218.886 44.5893 218.422 44.2693 218.038 43.864C217.665 43.4587 217.377 42.9947 217.174 42.472C216.971 41.9493 216.87 41.4 216.87 40.824C216.87 40.2373 216.971 39.6827 217.174 39.16C217.377 38.6373 217.665 38.1733 218.038 37.768C218.422 37.3627 218.886 37.048 219.43 36.824C219.974 36.5893 220.587 36.472 221.27 36.472C221.953 36.472 222.561 36.5893 223.094 36.824C223.638 37.048 224.102 37.3627 224.486 37.768C224.87 38.1733 225.158 38.6373 225.35 39.16C225.553 39.6827 225.654 40.2373 225.654 40.824C225.654 41.4 225.553 41.9493 225.35 42.472C225.158 42.9947 224.87 43.4587 224.486 43.864C224.113 44.2693 223.654 44.5893 223.11 44.824C222.566 45.048 221.953 45.16 221.27 45.16ZM219.078 40.824C219.078 41.3147 219.174 41.752 219.366 42.136C219.558 42.5093 219.819 42.8027 220.15 43.016C220.481 43.2293 220.854 43.336 221.27 43.336C221.675 43.336 222.043 43.2293 222.374 43.016C222.705 42.792 222.966 42.4933 223.158 42.12C223.361 41.736 223.462 41.2987 223.462 40.808C223.462 40.328 223.361 39.896 223.158 39.512C222.966 39.128 222.705 38.8293 222.374 38.616C222.043 38.4027 221.675 38.296 221.27 38.296C220.854 38.296 220.481 38.408 220.15 38.632C219.819 38.8453 219.558 39.144 219.366 39.528C219.174 39.9013 219.078 40.3333 219.078 40.824ZM226.493 45.112V43.208C226.749 43.1973 226.978 43.1333 227.181 43.016C227.384 42.8987 227.56 42.7013 227.709 42.424C227.869 42.136 227.992 41.736 228.077 41.224C228.173 40.712 228.237 40.056 228.269 39.256L228.381 36.616H234.669V45H232.525V38.488H230.269L230.237 39.464C230.194 40.5627 230.088 41.4747 229.917 42.2C229.746 42.9253 229.506 43.5013 229.197 43.928C228.898 44.344 228.525 44.6427 228.077 44.824C227.629 45.0053 227.101 45.1013 226.493 45.112ZM236.617 45V36.616H238.761V39.256H240.665C241.667 39.256 242.435 39.512 242.969 40.024C243.502 40.536 243.769 41.2133 243.769 42.056C243.769 42.6213 243.657 43.128 243.433 43.576C243.209 44.024 242.878 44.376 242.441 44.632C242.003 44.8773 241.459 45 240.809 45H236.617ZM238.761 43.368H240.473C240.761 43.368 240.995 43.3093 241.177 43.192C241.369 43.0747 241.507 42.92 241.593 42.728C241.689 42.536 241.737 42.3173 241.737 42.072C241.737 41.8373 241.694 41.6293 241.609 41.448C241.523 41.256 241.385 41.1067 241.193 41C241.011 40.8827 240.766 40.824 240.457 40.824H238.761V43.368ZM251.952 45.128C251.056 45.128 250.31 44.968 249.712 44.648C249.115 44.328 248.646 43.8853 248.304 43.32L250.032 42.536C250.214 42.8133 250.448 43.032 250.736 43.192C251.035 43.3413 251.403 43.416 251.84 43.416C252.342 43.416 252.726 43.32 252.992 43.128C253.27 42.9253 253.408 42.664 253.408 42.344C253.408 42.0453 253.296 41.8053 253.072 41.624C252.848 41.4427 252.518 41.352 252.08 41.352H251.216V40.024H252.096C252.299 40.024 252.47 39.9867 252.608 39.912C252.758 39.8267 252.87 39.7147 252.944 39.576C253.03 39.4373 253.072 39.2773 253.072 39.096C253.072 38.8293 252.966 38.6107 252.752 38.44C252.55 38.2693 252.224 38.184 251.776 38.184C251.403 38.184 251.094 38.2533 250.848 38.392C250.614 38.5307 250.416 38.7387 250.256 39.016L248.64 38.152C248.939 37.6293 249.366 37.2187 249.92 36.92C250.486 36.6213 251.142 36.472 251.888 36.472C252.475 36.472 252.998 36.5627 253.456 36.744C253.926 36.9253 254.294 37.1867 254.56 37.528C254.827 37.8693 254.96 38.296 254.96 38.808C254.96 39.1707 254.87 39.5227 254.688 39.864C254.518 40.2053 254.235 40.456 253.84 40.616C254.352 40.7653 254.736 41.0213 254.992 41.384C255.259 41.7467 255.392 42.1733 255.392 42.664C255.392 43.1973 255.243 43.6507 254.944 44.024C254.646 44.3867 254.24 44.664 253.728 44.856C253.216 45.0373 252.624 45.128 251.952 45.128ZM256.322 42.52C256.322 41.976 256.471 41.5013 256.77 41.096C257.079 40.68 257.506 40.36 258.05 40.136C258.594 39.912 259.218 39.8 259.922 39.8C260.274 39.8 260.631 39.8267 260.994 39.88C261.357 39.9333 261.671 40.0187 261.938 40.136V39.688C261.938 39.1547 261.778 38.744 261.458 38.456C261.149 38.168 260.685 38.024 260.066 38.024C259.607 38.024 259.17 38.104 258.754 38.264C258.338 38.424 257.901 38.6587 257.442 38.968L256.754 37.56C257.309 37.1973 257.874 36.9253 258.45 36.744C259.037 36.5627 259.65 36.472 260.29 36.472C261.485 36.472 262.413 36.7707 263.074 37.368C263.746 37.9653 264.082 38.8187 264.082 39.928V42.6C264.082 42.824 264.119 42.984 264.194 43.08C264.279 43.176 264.413 43.2347 264.594 43.256V45C264.402 45.032 264.226 45.0587 264.066 45.08C263.917 45.1013 263.789 45.112 263.682 45.112C263.255 45.112 262.93 45.016 262.706 44.824C262.493 44.632 262.359 44.3973 262.306 44.12L262.258 43.688C261.895 44.1573 261.442 44.52 260.898 44.776C260.354 45.032 259.799 45.16 259.234 45.16C258.679 45.16 258.178 45.048 257.73 44.824C257.293 44.5893 256.946 44.2747 256.69 43.88C256.445 43.4747 256.322 43.0213 256.322 42.52ZM261.538 42.952C261.655 42.824 261.751 42.696 261.826 42.568C261.901 42.44 261.938 42.3227 261.938 42.216V41.368C261.682 41.2613 261.405 41.1813 261.106 41.128C260.807 41.064 260.525 41.032 260.258 41.032C259.703 41.032 259.245 41.1547 258.882 41.4C258.53 41.6347 258.354 41.9493 258.354 42.344C258.354 42.5573 258.413 42.76 258.53 42.952C258.647 43.144 258.818 43.2987 259.042 43.416C259.266 43.5333 259.533 43.592 259.842 43.592C260.162 43.592 260.477 43.5333 260.786 43.416C261.095 43.288 261.346 43.1333 261.538 42.952ZM108.88 67.16C108.197 67.16 107.584 67.048 107.04 66.824C106.496 66.5893 106.032 66.2693 105.648 65.864C105.264 65.448 104.965 64.9787 104.752 64.456C104.549 63.9333 104.448 63.384 104.448 62.808C104.448 62.0187 104.624 61.2987 104.976 60.648C105.339 59.9867 105.851 59.4587 106.512 59.064C107.173 58.6693 107.957 58.472 108.864 58.472C109.771 58.472 110.549 58.6693 111.2 59.064C111.851 59.4587 112.336 59.976 112.656 60.616L110.56 61.256C110.379 60.9467 110.139 60.712 109.84 60.552C109.541 60.3813 109.211 60.296 108.848 60.296C108.443 60.296 108.069 60.4027 107.728 60.616C107.397 60.8187 107.136 61.112 106.944 61.496C106.752 61.8693 106.656 62.3067 106.656 62.808C106.656 63.2987 106.752 63.736 106.944 64.12C107.147 64.4933 107.413 64.792 107.744 65.016C108.075 65.2293 108.443 65.336 108.848 65.336C109.104 65.336 109.344 65.2933 109.568 65.208C109.803 65.1227 110.011 65.0053 110.192 64.856C110.373 64.7067 110.507 64.536 110.592 64.344L112.688 64.984C112.496 65.4 112.213 65.7733 111.84 66.104C111.477 66.4347 111.045 66.696 110.544 66.888C110.053 67.0693 109.499 67.16 108.88 67.16ZM117.801 67.16C117.118 67.16 116.505 67.048 115.961 66.824C115.417 66.5893 114.953 66.2693 114.569 65.864C114.196 65.4587 113.908 64.9947 113.705 64.472C113.502 63.9493 113.401 63.4 113.401 62.824C113.401 62.2373 113.502 61.6827 113.705 61.16C113.908 60.6373 114.196 60.1733 114.569 59.768C114.953 59.3627 115.417 59.048 115.961 58.824C116.505 58.5893 117.118 58.472 117.801 58.472C118.484 58.472 119.092 58.5893 119.625 58.824C120.169 59.048 120.633 59.3627 121.017 59.768C121.401 60.1733 121.689 60.6373 121.881 61.16C122.084 61.6827 122.185 62.2373 122.185 62.824C122.185 63.4 122.084 63.9493 121.881 64.472C121.689 64.9947 121.401 65.4587 121.017 65.864C120.644 66.2693 120.185 66.5893 119.641 66.824C119.097 67.048 118.484 67.16 117.801 67.16ZM115.609 62.824C115.609 63.3147 115.705 63.752 115.897 64.136C116.089 64.5093 116.35 64.8027 116.681 65.016C117.012 65.2293 117.385 65.336 117.801 65.336C118.206 65.336 118.574 65.2293 118.905 65.016C119.236 64.792 119.497 64.4933 119.689 64.12C119.892 63.736 119.993 63.2987 119.993 62.808C119.993 62.328 119.892 61.896 119.689 61.512C119.497 61.128 119.236 60.8293 118.905 60.616C118.574 60.4027 118.206 60.296 117.801 60.296C117.385 60.296 117.012 60.408 116.681 60.632C116.35 60.8453 116.089 61.144 115.897 61.528C115.705 61.9013 115.609 62.3333 115.609 62.824ZM127.536 67.16C126.854 67.16 126.24 67.048 125.696 66.824C125.152 66.5893 124.688 66.2693 124.304 65.864C123.92 65.448 123.622 64.9787 123.408 64.456C123.206 63.9333 123.104 63.384 123.104 62.808C123.104 62.0187 123.28 61.2987 123.632 60.648C123.995 59.9867 124.507 59.4587 125.168 59.064C125.83 58.6693 126.614 58.472 127.52 58.472C128.427 58.472 129.206 58.6693 129.856 59.064C130.507 59.4587 130.992 59.976 131.312 60.616L129.216 61.256C129.035 60.9467 128.795 60.712 128.496 60.552C128.198 60.3813 127.867 60.296 127.504 60.296C127.099 60.296 126.726 60.4027 126.384 60.616C126.054 60.8187 125.792 61.112 125.6 61.496C125.408 61.8693 125.312 62.3067 125.312 62.808C125.312 63.2987 125.408 63.736 125.6 64.12C125.803 64.4933 126.07 64.792 126.4 65.016C126.731 65.2293 127.099 65.336 127.504 65.336C127.76 65.336 128 65.2933 128.224 65.208C128.459 65.1227 128.667 65.0053 128.848 64.856C129.03 64.7067 129.163 64.536 129.248 64.344L131.344 64.984C131.152 65.4 130.87 65.7733 130.496 66.104C130.134 66.4347 129.702 66.696 129.2 66.888C128.71 67.0693 128.155 67.16 127.536 67.16ZM134.6 67V60.488H131.944V58.616H139.416V60.488H136.744V67H134.6ZM144.489 67.16C143.806 67.16 143.193 67.048 142.649 66.824C142.105 66.5893 141.641 66.2693 141.257 65.864C140.883 65.4587 140.595 64.9947 140.393 64.472C140.19 63.9493 140.089 63.4 140.089 62.824C140.089 62.2373 140.19 61.6827 140.393 61.16C140.595 60.6373 140.883 60.1733 141.257 59.768C141.641 59.3627 142.105 59.048 142.649 58.824C143.193 58.5893 143.806 58.472 144.489 58.472C145.171 58.472 145.779 58.5893 146.313 58.824C146.857 59.048 147.321 59.3627 147.705 59.768C148.089 60.1733 148.377 60.6373 148.569 61.16C148.771 61.6827 148.873 62.2373 148.873 62.824C148.873 63.4 148.771 63.9493 148.569 64.472C148.377 64.9947 148.089 65.4587 147.705 65.864C147.331 66.2693 146.873 66.5893 146.329 66.824C145.785 67.048 145.171 67.16 144.489 67.16ZM142.297 62.824C142.297 63.3147 142.393 63.752 142.585 64.136C142.777 64.5093 143.038 64.8027 143.369 65.016C143.699 65.2293 144.073 65.336 144.489 65.336C144.894 65.336 145.262 65.2293 145.593 65.016C145.923 64.792 146.185 64.4933 146.377 64.12C146.579 63.736 146.681 63.2987 146.681 62.808C146.681 62.328 146.579 61.896 146.377 61.512C146.185 61.128 145.923 60.8293 145.593 60.616C145.262 60.4027 144.894 60.296 144.489 60.296C144.073 60.296 143.699 60.408 143.369 60.632C143.038 60.8453 142.777 61.144 142.585 61.528C142.393 61.9013 142.297 62.3333 142.297 62.824ZM149.872 67L152 63.736C151.498 63.5973 151.098 63.3253 150.8 62.92C150.512 62.5147 150.368 61.9813 150.368 61.32C150.368 60.7653 150.496 60.2853 150.752 59.88C151.008 59.4747 151.36 59.16 151.808 58.936C152.256 58.7013 152.773 58.584 153.36 58.584H157.344V67H155.2V64.104H154.064L152.224 67H149.872ZM153.616 62.568H155.2V60.232H153.696C153.312 60.232 153.008 60.3387 152.784 60.552C152.56 60.7653 152.448 61.0427 152.448 61.384C152.448 61.7253 152.544 62.008 152.736 62.232C152.938 62.456 153.232 62.568 153.616 62.568ZM159.289 67V58.616H161.433V61.816H164.825V58.616H166.969V67H164.825V63.608H161.433V67H159.289ZM168.929 67V58.632H171.073V64.136L174.833 58.616H176.785V67H174.641V61.624L170.929 67H168.929ZM182.63 67.16C181.958 67.16 181.35 67.048 180.806 66.824C180.262 66.5893 179.798 66.2747 179.414 65.88C179.03 65.4747 178.731 65.016 178.518 64.504C178.315 63.9813 178.214 63.432 178.214 62.856C178.214 62.056 178.39 61.3253 178.742 60.664C179.104 60.0027 179.616 59.4747 180.278 59.08C180.95 58.6747 181.739 58.472 182.646 58.472C183.563 58.472 184.347 58.6747 184.998 59.08C185.648 59.4747 186.144 60.0027 186.486 60.664C186.838 61.3147 187.014 62.0187 187.014 62.776C187.014 62.904 187.008 63.0373 186.998 63.176C186.987 63.304 186.976 63.4107 186.966 63.496H180.486C180.528 63.9227 180.651 64.296 180.854 64.616C181.067 64.936 181.334 65.1813 181.654 65.352C181.984 65.512 182.336 65.592 182.71 65.592C183.136 65.592 183.536 65.4907 183.91 65.288C184.294 65.0747 184.555 64.7973 184.694 64.456L186.534 64.968C186.331 65.3947 186.038 65.7733 185.654 66.104C185.28 66.4347 184.838 66.696 184.326 66.888C183.814 67.0693 183.248 67.16 182.63 67.16ZM180.438 62.136H184.822C184.779 61.7093 184.656 61.3413 184.454 61.032C184.262 60.712 184.006 60.4667 183.686 60.296C183.366 60.1147 183.008 60.024 182.614 60.024C182.23 60.024 181.878 60.1147 181.558 60.296C181.248 60.4667 180.992 60.712 180.79 61.032C180.598 61.3413 180.48 61.7093 180.438 62.136ZM188.32 67V58.616H190.56L193.184 63.464L195.824 58.616H198.032V67H196V61.576L193.856 65.512H192.512L190.352 61.576V67H188.32ZM203.851 67V58.616H211.371V67H209.227V60.488H205.995V67H203.851ZM212.744 64.52C212.744 63.976 212.893 63.5013 213.192 63.096C213.501 62.68 213.928 62.36 214.472 62.136C215.016 61.912 215.64 61.8 216.344 61.8C216.696 61.8 217.053 61.8267 217.416 61.88C217.778 61.9333 218.093 62.0187 218.36 62.136V61.688C218.36 61.1547 218.2 60.744 217.88 60.456C217.57 60.168 217.106 60.024 216.488 60.024C216.029 60.024 215.592 60.104 215.176 60.264C214.76 60.424 214.322 60.6587 213.864 60.968L213.176 59.56C213.73 59.1973 214.296 58.9253 214.872 58.744C215.458 58.5627 216.072 58.472 216.712 58.472C217.906 58.472 218.834 58.7707 219.496 59.368C220.168 59.9653 220.504 60.8187 220.504 61.928V64.6C220.504 64.824 220.541 64.984 220.616 65.08C220.701 65.176 220.834 65.2347 221.016 65.256V67C220.824 67.032 220.648 67.0587 220.488 67.08C220.338 67.1013 220.21 67.112 220.104 67.112C219.677 67.112 219.352 67.016 219.128 66.824C218.914 66.632 218.781 66.3973 218.728 66.12L218.68 65.688C218.317 66.1573 217.864 66.52 217.32 66.776C216.776 67.032 216.221 67.16 215.656 67.16C215.101 67.16 214.6 67.048 214.152 66.824C213.714 66.5893 213.368 66.2747 213.112 65.88C212.866 65.4747 212.744 65.0213 212.744 64.52ZM217.96 64.952C218.077 64.824 218.173 64.696 218.248 64.568C218.322 64.44 218.36 64.3227 218.36 64.216V63.368C218.104 63.2613 217.826 63.1813 217.528 63.128C217.229 63.064 216.946 63.032 216.68 63.032C216.125 63.032 215.666 63.1547 215.304 63.4C214.952 63.6347 214.776 63.9493 214.776 64.344C214.776 64.5573 214.834 64.76 214.952 64.952C215.069 65.144 215.24 65.2987 215.464 65.416C215.688 65.5333 215.954 65.592 216.264 65.592C216.584 65.592 216.898 65.5333 217.208 65.416C217.517 65.288 217.768 65.1333 217.96 64.952ZM229.035 69.032V67H222.507V58.616H224.651V65.128H227.595V58.616H229.739V65.128H230.923V69.032H229.035ZM232.32 67V58.632H234.464V64.136L238.224 58.616H240.176V67H238.032V61.624L234.32 67H232.32ZM246.02 67.16C245.348 67.16 244.74 67.048 244.196 66.824C243.652 66.5893 243.188 66.2747 242.804 65.88C242.42 65.4747 242.122 65.016 241.908 64.504C241.706 63.9813 241.604 63.432 241.604 62.856C241.604 62.056 241.78 61.3253 242.132 60.664C242.495 60.0027 243.007 59.4747 243.668 59.08C244.34 58.6747 245.13 58.472 246.036 58.472C246.954 58.472 247.738 58.6747 248.388 59.08C249.039 59.4747 249.535 60.0027 249.876 60.664C250.228 61.3147 250.404 62.0187 250.404 62.776C250.404 62.904 250.399 63.0373 250.388 63.176C250.378 63.304 250.367 63.4107 250.356 63.496H243.876C243.919 63.9227 244.042 64.296 244.244 64.616C244.458 64.936 244.724 65.1813 245.044 65.352C245.375 65.512 245.727 65.592 246.1 65.592C246.527 65.592 246.927 65.4907 247.3 65.288C247.684 65.0747 247.946 64.7973 248.084 64.456L249.924 64.968C249.722 65.3947 249.428 65.7733 249.044 66.104C248.671 66.4347 248.228 66.696 247.716 66.888C247.204 67.0693 246.639 67.16 246.02 67.16ZM243.828 62.136H248.212C248.17 61.7093 248.047 61.3413 247.844 61.032C247.652 60.712 247.396 60.4667 247.076 60.296C246.756 60.1147 246.399 60.024 246.004 60.024C245.62 60.024 245.268 60.1147 244.948 60.296C244.639 60.4667 244.383 60.712 244.18 61.032C243.988 61.3413 243.871 61.7093 243.828 62.136ZM251.71 67V58.616H253.854V61.816H257.246V58.616H259.39V67H257.246V63.608H253.854V67H251.71ZM263.287 67V60.488H260.631V58.616H268.103V60.488H265.431V67H263.287ZM273.176 67.16C272.493 67.16 271.88 67.048 271.336 66.824C270.792 66.5893 270.328 66.2693 269.944 65.864C269.571 65.4587 269.283 64.9947 269.08 64.472C268.877 63.9493 268.776 63.4 268.776 62.824C268.776 62.2373 268.877 61.6827 269.08 61.16C269.283 60.6373 269.571 60.1733 269.944 59.768C270.328 59.3627 270.792 59.048 271.336 58.824C271.88 58.5893 272.493 58.472 273.176 58.472C273.859 58.472 274.467 58.5893 275 58.824C275.544 59.048 276.008 59.3627 276.392 59.768C276.776 60.1733 277.064 60.6373 277.256 61.16C277.459 61.6827 277.56 62.2373 277.56 62.824C277.56 63.4 277.459 63.9493 277.256 64.472C277.064 64.9947 276.776 65.4587 276.392 65.864C276.019 66.2693 275.56 66.5893 275.016 66.824C274.472 67.048 273.859 67.16 273.176 67.16ZM270.984 62.824C270.984 63.3147 271.08 63.752 271.272 64.136C271.464 64.5093 271.725 64.8027 272.056 65.016C272.387 65.2293 272.76 65.336 273.176 65.336C273.581 65.336 273.949 65.2293 274.28 65.016C274.611 64.792 274.872 64.4933 275.064 64.12C275.267 63.736 275.368 63.2987 275.368 62.808C275.368 62.328 275.267 61.896 275.064 61.512C274.872 61.128 274.611 60.8293 274.28 60.616C273.949 60.4027 273.581 60.296 273.176 60.296C272.76 60.296 272.387 60.408 272.056 60.632C271.725 60.8453 271.464 61.144 271.272 61.528C271.08 61.9013 270.984 62.3333 270.984 62.824ZM279.007 67V58.616H283.679C284.255 58.616 284.719 58.712 285.071 58.904C285.434 59.096 285.701 59.3467 285.871 59.656C286.042 59.9653 286.127 60.296 286.127 60.648C286.127 61.1173 286.021 61.528 285.807 61.88C285.605 62.232 285.285 62.504 284.847 62.696C285.338 62.8347 285.738 63.0747 286.047 63.416C286.357 63.7467 286.511 64.184 286.511 64.728C286.511 65.2507 286.389 65.6827 286.143 66.024C285.898 66.3547 285.546 66.6 285.087 66.76C284.629 66.92 284.085 67 283.455 67H279.007ZM281.039 65.544H283.391C283.583 65.544 283.759 65.496 283.919 65.4C284.079 65.304 284.202 65.176 284.287 65.016C284.383 64.856 284.431 64.68 284.431 64.488C284.431 64.2853 284.389 64.1093 284.303 63.96C284.218 63.8 284.095 63.6773 283.935 63.592C283.786 63.496 283.61 63.448 283.407 63.448H281.039V65.544ZM281.039 62.104H283.135C283.327 62.104 283.498 62.056 283.647 61.96C283.797 61.864 283.909 61.736 283.983 61.576C284.069 61.416 284.111 61.24 284.111 61.048C284.111 60.7707 284.021 60.5413 283.839 60.36C283.669 60.168 283.439 60.072 283.151 60.072H281.039V62.104Z" fill="white"/>
<circle cx="49" cy="51" r="35" fill="white"/>
<path d="M42.8943 47.1919C43.2542 47.1561 43.5169 46.8353 43.4811 46.4754C43.4453 46.1155 43.1245 45.8527 42.7646 45.8885C42.4047 45.9243 42.1419 46.2451 42.1778 46.605C42.2136 46.9649 42.5344 47.2277 42.8943 47.1919Z" fill="url(#paint1_linear_9_21)"/>
<path d="M47.3525 47.1899C47.7124 47.1541 47.9752 46.8333 47.9393 46.4734C47.9035 46.1135 47.5827 45.8508 47.2228 45.8866C46.8629 45.9224 46.6002 46.2432 46.636 46.6031C46.6718 46.963 46.9926 47.2257 47.3525 47.1899Z" fill="url(#paint2_linear_9_21)"/>
<path d="M45.9534 48.8672H43.9858C43.6839 48.8672 43.4392 49.1119 43.4392 49.4137C43.4392 49.7157 43.6839 49.9603 43.9858 49.9603H45.9534C46.2553 49.9603 46.5 49.7156 46.5 49.4137C46.5 49.1119 46.2553 48.8672 45.9534 48.8672Z" fill="url(#paint3_linear_9_21)"/>
<path d="M65.9712 38.8462H64.3201V37.4683H66.4529C66.7547 37.4683 66.9994 37.2236 66.9994 36.9218C66.9994 36.6199 66.7547 36.3752 66.4529 36.3752H38.3607C38.0588 36.3752 37.8142 36.6199 37.8142 36.9218C37.8142 37.2236 38.0588 37.4683 38.3607 37.4683H63.227V38.8462H61.576C61.009 38.8462 60.5478 39.3075 60.5478 39.8744V44.6301C60.5602 45.1609 60.6621 45.7125 61.0155 46.3016C61.3103 46.7863 61.7295 47.1874 62.2281 47.4608L61.8711 48.0347C61.3387 48.8906 61.2892 49.9818 61.7419 50.8824L63.2264 53.8356C63.5854 54.55 63.4299 55.4305 62.8481 55.9785L60.1312 58.4366V47.8977C60.1312 47.056 59.4464 46.3712 58.6047 46.3712H57.0248C56.9838 46.1039 56.9226 45.8402 56.8415 45.582C56.7709 45.3576 56.7599 45.117 56.8097 44.8862L57.2126 43.017C57.2892 42.6616 57.1816 42.296 56.9245 42.0388C56.6675 41.7818 56.3017 41.6738 55.9463 41.7506C55.3798 41.8253 53.9929 42.3169 53.4154 42.105C53.1999 42.0334 52.9778 41.9753 52.7555 41.9319C52.4594 41.8747 52.1723 42.0678 52.1146 42.364C52.0569 42.6603 52.2504 42.9473 52.5467 43.005C52.7233 43.0394 52.8997 43.0856 53.0712 43.1425C53.485 43.2798 53.9304 43.3036 54.3594 43.211L56.1351 42.8282L55.7411 44.6559C55.5361 45.4395 56.0094 46.2839 55.994 47.1894V52.8424C55.994 53.2826 55.927 53.7166 55.795 54.1326C55.7529 54.2652 55.7236 54.401 55.7047 54.5382C54.4731 53.448 52.8551 52.785 51.0848 52.785H48.7396V52.2479C49.4998 51.5137 50.0437 50.5521 50.2572 49.4627C51.0471 49.1976 51.7181 48.3891 51.967 47.6237C52.3431 46.4674 51.8122 45.2544 50.7837 44.9199C50.7837 44.9198 50.7837 44.9198 50.7837 44.9198C50.6715 44.8834 50.5238 44.8512 50.3582 44.8536V42.2496C50.3582 40.6623 49.0669 39.3709 47.4795 39.3709H42.6291C41.1832 39.3709 39.9833 40.4427 39.781 41.8334H38.3775C37.6044 41.7548 36.8233 42.2231 35.9796 42.1425L34.1622 41.7506C33.8068 41.6739 33.4411 41.7818 33.1841 42.0388C32.927 42.296 32.8194 42.6616 32.896 43.017L33.2989 44.8863C33.3487 45.1171 33.3377 45.3576 33.2671 45.5821C33.186 45.8402 33.1248 46.1039 33.0838 46.3712H31.6969V38.6461C31.6969 37.9967 32.2253 37.4683 32.8747 37.4683H35.8465C36.1484 37.4683 36.3931 37.2236 36.3931 36.9218C36.3931 36.6199 36.1484 36.3752 35.8465 36.3752H32.8747C31.6225 36.3752 30.6038 37.394 30.6038 38.6461V46.6845C30.2377 46.9636 30 47.4028 30 47.8977L30.0136 65.6691C30.0136 66.1961 30.4424 66.625 30.9694 66.625H59.1669C59.694 66.625 60.1228 66.1962 60.1228 65.6691L60.1312 59.9107L63.5853 56.7856C63.5877 56.7834 63.5901 56.7812 63.5924 56.779C64.5276 55.9023 64.7786 54.49 64.203 53.3446L62.7185 50.3914C62.4356 49.8286 62.4666 49.1469 62.7992 48.6121L63.292 47.8199C63.4492 47.8435 63.6099 47.8559 63.7736 47.8559C63.7736 47.8559 63.9372 47.8559 63.7736 47.8559C64.9409 47.8559 65.9653 47.2327 66.5317 46.3016C66.7399 45.9943 67.0134 45.2516 66.9994 44.6301V39.8745C66.9995 39.3075 66.5382 38.8462 65.9712 38.8462ZM59.0381 47.8977V59.4255L58.4407 59.966C58.3161 59.8534 58.1897 59.7433 58.061 59.6365C58.0376 58.3259 57.6512 57.1026 56.9981 56.0627C56.9176 55.5868 56.6744 54.993 56.8369 54.4633C57.0029 53.9403 57.0871 53.3949 57.0871 52.8423V47.4643H58.6047C58.8437 47.4643 59.0381 47.6587 59.0381 47.8977ZM42.4623 53.0609C43.2319 53.4929 44.1173 53.7384 45.0543 53.7384C45.9914 53.7384 46.8767 53.4929 47.6463 53.0609V54.0534C47.6463 54.3007 47.4451 54.502 47.1978 54.502H42.9108C42.6635 54.502 42.4623 54.3007 42.4623 54.0534V53.0609ZM50.4455 45.9593C50.9009 46.1073 51.117 46.7024 50.9274 47.2856C50.7415 47.857 50.1578 48.4381 49.7489 48.4588C49.4829 48.4721 49.2652 48.6754 49.2336 48.9398C48.9812 51.0522 47.1845 52.6453 45.0544 52.6453C42.9242 52.6453 41.1275 51.0522 40.8751 48.9398C40.8435 48.6753 40.6259 48.4721 40.3599 48.4588C39.9509 48.4381 39.3671 47.8571 39.1813 47.2856C38.9917 46.7024 39.2079 46.1073 39.6631 45.9593C39.6861 45.9519 39.704 45.946 39.7211 45.946C39.7567 45.946 39.7882 45.9715 39.852 46.061C39.99 46.2548 40.2371 46.3373 40.4636 46.2646C40.7458 46.1844 40.8976 45.7865 40.8438 45.4066C40.8438 44.2487 41.7859 43.3066 42.9439 43.3066H47.165C48.3229 43.3066 49.2651 44.2487 49.2651 45.4066C49.2527 45.6976 49.231 46.0861 49.6453 46.2646C49.8717 46.3373 50.119 46.2548 50.2568 46.061C50.351 45.9287 50.3749 45.9364 50.4455 45.9593ZM40.8437 42.2495C40.8437 41.265 41.6447 40.464 42.6291 40.464H47.4795C48.4639 40.464 49.2649 41.265 49.2649 42.2495V43.004C48.7031 42.5123 47.9683 42.2135 47.1648 42.2135H42.9438C42.1403 42.2135 41.4055 42.5123 40.8437 43.004V42.2495ZM35.7492 43.211C36.1782 43.3033 36.6237 43.2796 37.0376 43.1424C37.4692 42.9992 37.92 42.9265 38.3776 42.9265H39.7506V44.8534C39.5851 44.851 39.4372 44.8832 39.325 44.9198C38.2965 45.2543 37.7657 46.4672 38.1417 47.6237C38.3906 48.3892 39.0615 49.1976 39.8515 49.4626C40.0651 50.552 40.609 51.5136 41.3692 52.2478V52.785H39.024C37.2537 52.785 35.6356 53.4479 34.4041 54.5382C34.3852 54.401 34.3558 54.2651 34.3138 54.1326C34.1817 53.7167 34.1147 53.2825 34.1147 52.8424V47.1894C34.0684 46.4077 34.5702 45.5554 34.3677 44.6559L33.9737 42.8282L35.7492 43.211ZM31.0932 47.8977C31.0932 47.6587 31.2876 47.4643 31.5266 47.4643H33.0215V52.8424C33.0215 53.395 33.1057 53.9403 33.2718 54.4633C33.437 54.7966 33.1858 55.7019 33.1104 56.0628C32.4565 57.1041 32.07 58.3291 32.0475 59.6415C31.8291 59.8231 31.6164 60.0127 31.41 60.2104C31.2983 60.3174 31.1926 60.4299 31.0931 60.5472V47.8977H31.0932ZM59.0297 65.5318H31.1067V63.485C31.1067 62.5505 31.4929 61.6447 32.1662 60.9998C33.6772 59.5524 35.5546 58.5751 37.5955 58.1732C37.8916 58.1149 38.0845 57.8276 38.0262 57.5314C37.9679 57.2351 37.6804 57.0421 37.3843 57.1007C35.8959 57.3937 34.4876 57.9663 33.2225 58.7814C33.6912 56.0023 36.1135 53.8781 39.0238 53.8781H41.369V54.0534C41.369 54.9036 42.0606 55.5952 42.9108 55.5952H47.1977C48.0478 55.5952 48.7393 54.9036 48.7393 54.0534V53.8781H51.0846C53.9925 53.8781 56.4129 55.9986 56.8846 58.7743C54.9644 57.5382 52.7268 56.8743 50.397 56.8743H40.0391C39.7373 56.8743 39.4926 57.1189 39.4926 57.4208C39.4926 57.7227 39.7373 57.9673 40.0391 57.9673H50.3972C52.878 57.9673 55.2439 58.7951 57.1655 60.3174C57.1706 60.3216 57.1759 60.3255 57.1811 60.3296C57.4557 60.5479 57.7211 60.7804 57.9764 61.0266C58.6459 61.6723 59.0298 62.576 59.0298 63.5061V65.5318H59.0297ZM65.9063 39.9393V41.447H61.6409V39.9393H65.9063ZM65.7385 45.4595C65.527 46.083 64.6045 46.8084 63.7736 46.7628C62.5976 46.7628 61.6409 45.8061 61.6409 44.6301V42.5401H65.9063V44.6301C65.8754 44.9227 65.9208 44.968 65.7385 45.4595Z" fill="url(#paint4_linear_9_21)"/>
<defs>
<linearGradient id="paint0_linear_9_21" x1="183.5" y1="0" x2="183.5" y2="100" gradientUnits="userSpaceOnUse">
<stop stop-color="#27C8DA"/>
<stop offset="1" stop-color="#24BFD0"/>
</linearGradient>
<linearGradient id="paint1_linear_9_21" x1="42.7646" y1="45.8885" x2="42.8943" y2="47.1919" gradientUnits="userSpaceOnUse">
<stop stop-color="#27C8DA"/>
<stop offset="1" stop-color="#24BFD0"/>
</linearGradient>
<linearGradient id="paint2_linear_9_21" x1="47.2228" y1="45.8866" x2="47.3525" y2="47.1899" gradientUnits="userSpaceOnUse">
<stop stop-color="#27C8DA"/>
<stop offset="1" stop-color="#24BFD0"/>
</linearGradient>
<linearGradient id="paint3_linear_9_21" x1="44.9696" y1="48.8672" x2="44.9696" y2="49.9603" gradientUnits="userSpaceOnUse">
<stop stop-color="#27C8DA"/>
<stop offset="1" stop-color="#24BFD0"/>
</linearGradient>
<linearGradient id="paint4_linear_9_21" x1="48.5" y1="36.3752" x2="48.5" y2="66.625" gradientUnits="userSpaceOnUse">
<stop stop-color="#27C8DA"/>
<stop offset="1" stop-color="#24BFD0"/>
</linearGradient>
</defs>
</svg>
