<svg width="367" height="100" viewBox="0 0 367 100" fill="none" xmlns="http://www.w3.org/2000/svg">
<rect width="367" height="100" rx="5" fill="url(#paint0_linear_9_33)"/>
<path d="M105.216 45V33.64H107.408V38.216H108.528L111.904 33.64H114.368L110.24 39.144L114.688 45H112.016L108.496 40.216H107.408V45H105.216ZM119.317 45.16C118.634 45.16 118.021 45.048 117.477 44.824C116.933 44.5893 116.469 44.2693 116.085 43.864C115.711 43.4587 115.423 42.9947 115.221 42.472C115.018 41.9493 114.917 41.4 114.917 40.824C114.917 40.2373 115.018 39.6827 115.221 39.16C115.423 38.6373 115.711 38.1733 116.085 37.768C116.469 37.3627 116.933 37.048 117.477 36.824C118.021 36.5893 118.634 36.472 119.317 36.472C119.999 36.472 120.607 36.5893 121.141 36.824C121.685 37.048 122.149 37.3627 122.533 37.768C122.917 38.1733 123.205 38.6373 123.397 39.16C123.599 39.6827 123.701 40.2373 123.701 40.824C123.701 41.4 123.599 41.9493 123.397 42.472C123.205 42.9947 122.917 43.4587 122.533 43.864C122.159 44.2693 121.701 44.5893 121.157 44.824C120.613 45.048 119.999 45.16 119.317 45.16ZM117.125 40.824C117.125 41.3147 117.221 41.752 117.413 42.136C117.605 42.5093 117.866 42.8027 118.197 43.016C118.527 43.2293 118.901 43.336 119.317 43.336C119.722 43.336 120.09 43.2293 120.421 43.016C120.751 42.792 121.013 42.4933 121.205 42.12C121.407 41.736 121.509 41.2987 121.509 40.808C121.509 40.328 121.407 39.896 121.205 39.512C121.013 39.128 120.751 38.8293 120.421 38.616C120.09 38.4027 119.722 38.296 119.317 38.296C118.901 38.296 118.527 38.408 118.197 38.632C117.866 38.8453 117.605 39.144 117.413 39.528C117.221 39.9013 117.125 40.3333 117.125 40.824ZM125.148 45V36.616H127.388L130.012 41.464L132.652 36.616H134.86V45H132.828V39.576L130.684 43.512H129.34L127.18 39.576V45H125.148ZM140.739 48.408V45H140.499C139.614 45 138.857 44.808 138.227 44.424C137.609 44.0293 137.134 43.5173 136.803 42.888C136.473 42.248 136.307 41.56 136.307 40.824C136.307 40.0667 136.473 39.3733 136.803 38.744C137.145 38.104 137.625 37.592 138.243 37.208C138.873 36.824 139.625 36.632 140.499 36.632H140.739V33.32H142.883V36.632H143.139C144.014 36.632 144.766 36.824 145.395 37.208C146.025 37.592 146.505 38.104 146.835 38.744C147.166 39.3733 147.331 40.0667 147.331 40.824C147.331 41.56 147.166 42.248 146.835 42.888C146.505 43.5173 146.025 44.0293 145.395 44.424C144.777 44.808 144.025 45 143.139 45H142.883V48.408H140.739ZM140.499 43.288H140.851V38.344H140.499C140.094 38.344 139.731 38.4507 139.411 38.664C139.102 38.8773 138.857 39.1707 138.675 39.544C138.494 39.9173 138.403 40.344 138.403 40.824C138.403 41.304 138.494 41.7307 138.675 42.104C138.857 42.4773 139.102 42.7707 139.411 42.984C139.721 43.1867 140.083 43.288 140.499 43.288ZM142.787 43.288H143.139C143.555 43.288 143.918 43.1867 144.227 42.984C144.547 42.7707 144.793 42.4773 144.963 42.104C145.145 41.7307 145.235 41.304 145.235 40.824C145.235 40.344 145.145 39.9173 144.963 39.544C144.782 39.1707 144.537 38.8773 144.227 38.664C143.918 38.4507 143.555 38.344 143.139 38.344H142.787V43.288ZM152.629 45.16C151.947 45.16 151.333 45.048 150.789 44.824C150.245 44.5893 149.781 44.2693 149.397 43.864C149.024 43.4587 148.736 42.9947 148.533 42.472C148.331 41.9493 148.229 41.4 148.229 40.824C148.229 40.2373 148.331 39.6827 148.533 39.16C148.736 38.6373 149.024 38.1733 149.397 37.768C149.781 37.3627 150.245 37.048 150.789 36.824C151.333 36.5893 151.947 36.472 152.629 36.472C153.312 36.472 153.92 36.5893 154.453 36.824C154.997 37.048 155.461 37.3627 155.845 37.768C156.229 38.1733 156.517 38.6373 156.709 39.16C156.912 39.6827 157.013 40.2373 157.013 40.824C157.013 41.4 156.912 41.9493 156.709 42.472C156.517 42.9947 156.229 43.4587 155.845 43.864C155.472 44.2693 155.013 44.5893 154.469 44.824C153.925 45.048 153.312 45.16 152.629 45.16ZM150.437 40.824C150.437 41.3147 150.533 41.752 150.725 42.136C150.917 42.5093 151.179 42.8027 151.509 43.016C151.84 43.2293 152.213 43.336 152.629 43.336C153.035 43.336 153.403 43.2293 153.733 43.016C154.064 42.792 154.325 42.4933 154.517 42.12C154.72 41.736 154.821 41.2987 154.821 40.808C154.821 40.328 154.72 39.896 154.517 39.512C154.325 39.128 154.064 38.8293 153.733 38.616C153.403 38.4027 153.035 38.296 152.629 38.296C152.213 38.296 151.84 38.408 151.509 38.632C151.179 38.8453 150.917 39.144 150.725 39.528C150.533 39.9013 150.437 40.3333 150.437 40.824ZM163.484 45.16C162.834 45.16 162.258 45.016 161.756 44.728C161.266 44.4293 160.882 44.0293 160.604 43.528V48.408H158.46V36.616H160.332V38.056C160.652 37.5653 161.058 37.1813 161.548 36.904C162.039 36.616 162.599 36.472 163.228 36.472C163.794 36.472 164.311 36.584 164.78 36.808C165.26 37.032 165.676 37.3467 166.028 37.752C166.38 38.1467 166.652 38.6053 166.844 39.128C167.047 39.64 167.148 40.1947 167.148 40.792C167.148 41.6027 166.988 42.3387 166.668 43C166.359 43.6613 165.927 44.1893 165.372 44.584C164.828 44.968 164.199 45.16 163.484 45.16ZM162.764 43.336C163.095 43.336 163.394 43.2667 163.66 43.128C163.927 42.9893 164.156 42.8027 164.348 42.568C164.551 42.3227 164.7 42.0507 164.796 41.752C164.903 41.4427 164.956 41.1227 164.956 40.792C164.956 40.44 164.898 40.1147 164.78 39.816C164.674 39.5173 164.514 39.256 164.3 39.032C164.087 38.7973 163.836 38.616 163.548 38.488C163.271 38.36 162.967 38.296 162.636 38.296C162.434 38.296 162.226 38.3333 162.012 38.408C161.81 38.472 161.612 38.568 161.42 38.696C161.228 38.824 161.058 38.9733 160.908 39.144C160.77 39.3147 160.668 39.5013 160.604 39.704V41.672C160.732 41.9813 160.903 42.264 161.116 42.52C161.34 42.776 161.596 42.9787 161.884 43.128C162.172 43.2667 162.466 43.336 162.764 43.336ZM170.537 45V38.488H167.881V36.616H175.353V38.488H172.681V45H170.537ZM180.398 45V36.632H182.542V42.136L186.302 36.616H188.254V45H186.11V39.624L182.398 45H180.398ZM197.046 45.128C196.15 45.128 195.403 44.968 194.806 44.648C194.209 44.328 193.739 43.8853 193.398 43.32L195.126 42.536C195.307 42.8133 195.542 43.032 195.83 43.192C196.129 43.3413 196.497 43.416 196.934 43.416C197.435 43.416 197.819 43.32 198.086 43.128C198.363 42.9253 198.502 42.664 198.502 42.344C198.502 42.0453 198.39 41.8053 198.166 41.624C197.942 41.4427 197.611 41.352 197.174 41.352H196.31V40.024H197.19C197.393 40.024 197.563 39.9867 197.702 39.912C197.851 39.8267 197.963 39.7147 198.038 39.576C198.123 39.4373 198.166 39.2773 198.166 39.096C198.166 38.8293 198.059 38.6107 197.846 38.44C197.643 38.2693 197.318 38.184 196.87 38.184C196.497 38.184 196.187 38.2533 195.942 38.392C195.707 38.5307 195.51 38.7387 195.35 39.016L193.734 38.152C194.033 37.6293 194.459 37.2187 195.014 36.92C195.579 36.6213 196.235 36.472 196.982 36.472C197.569 36.472 198.091 36.5627 198.55 36.744C199.019 36.9253 199.387 37.1867 199.654 37.528C199.921 37.8693 200.054 38.296 200.054 38.808C200.054 39.1707 199.963 39.5227 199.782 39.864C199.611 40.2053 199.329 40.456 198.934 40.616C199.446 40.7653 199.83 41.0213 200.086 41.384C200.353 41.7467 200.486 42.1733 200.486 42.664C200.486 43.1973 200.337 43.6507 200.038 44.024C199.739 44.3867 199.334 44.664 198.822 44.856C198.31 45.0373 197.718 45.128 197.046 45.128ZM201.416 42.52C201.416 41.976 201.565 41.5013 201.864 41.096C202.173 40.68 202.6 40.36 203.144 40.136C203.688 39.912 204.312 39.8 205.016 39.8C205.368 39.8 205.725 39.8267 206.088 39.88C206.45 39.9333 206.765 40.0187 207.032 40.136V39.688C207.032 39.1547 206.872 38.744 206.552 38.456C206.242 38.168 205.778 38.024 205.16 38.024C204.701 38.024 204.264 38.104 203.848 38.264C203.432 38.424 202.994 38.6587 202.536 38.968L201.848 37.56C202.402 37.1973 202.968 36.9253 203.544 36.744C204.13 36.5627 204.744 36.472 205.384 36.472C206.578 36.472 207.506 36.7707 208.168 37.368C208.84 37.9653 209.176 38.8187 209.176 39.928V42.6C209.176 42.824 209.213 42.984 209.288 43.08C209.373 43.176 209.506 43.2347 209.688 43.256V45C209.496 45.032 209.32 45.0587 209.16 45.08C209.01 45.1013 208.882 45.112 208.776 45.112C208.349 45.112 208.024 45.016 207.8 44.824C207.586 44.632 207.453 44.3973 207.4 44.12L207.352 43.688C206.989 44.1573 206.536 44.52 205.992 44.776C205.448 45.032 204.893 45.16 204.328 45.16C203.773 45.16 203.272 45.048 202.824 44.824C202.386 44.5893 202.04 44.2747 201.784 43.88C201.538 43.4747 201.416 43.0213 201.416 42.52ZM206.632 42.952C206.749 42.824 206.845 42.696 206.92 42.568C206.994 42.44 207.032 42.3227 207.032 42.216V41.368C206.776 41.2613 206.498 41.1813 206.2 41.128C205.901 41.064 205.618 41.032 205.352 41.032C204.797 41.032 204.338 41.1547 203.976 41.4C203.624 41.6347 203.448 41.9493 203.448 42.344C203.448 42.5573 203.506 42.76 203.624 42.952C203.741 43.144 203.912 43.2987 204.136 43.416C204.36 43.5333 204.626 43.592 204.936 43.592C205.256 43.592 205.57 43.5333 205.88 43.416C206.189 43.288 206.44 43.1333 206.632 42.952ZM215.355 45.16C213.915 45.16 212.822 44.7387 212.075 43.896C211.339 43.0427 210.971 41.8 210.971 40.168C210.971 39.144 211.062 38.28 211.243 37.576C211.424 36.872 211.691 36.2907 212.043 35.832C212.395 35.3733 212.838 35 213.371 34.712C213.915 34.424 214.539 34.1947 215.243 34.024L218.843 33.112L218.875 34.856L215.323 35.784C214.811 35.9333 214.363 36.1413 213.979 36.408C213.595 36.664 213.286 37 213.051 37.416C212.827 37.8213 212.683 38.3333 212.619 38.952C212.939 38.4293 213.376 38.0187 213.931 37.72C214.486 37.4107 215.158 37.256 215.947 37.256C216.694 37.256 217.35 37.416 217.915 37.736C218.48 38.056 218.918 38.4987 219.227 39.064C219.547 39.6293 219.707 40.2853 219.707 41.032C219.707 41.832 219.536 42.5467 219.195 43.176C218.864 43.7947 218.374 44.28 217.723 44.632C217.083 44.984 216.294 45.16 215.355 45.16ZM215.355 43.336C216.016 43.336 216.539 43.1387 216.923 42.744C217.318 42.3387 217.515 41.8053 217.515 41.144C217.515 40.504 217.323 39.9813 216.939 39.576C216.555 39.1707 216.027 38.968 215.355 38.968C214.939 38.968 214.566 39.0533 214.235 39.224C213.915 39.3947 213.659 39.6453 213.467 39.976C213.275 40.296 213.179 40.6853 213.179 41.144C213.179 41.5707 213.264 41.9493 213.435 42.28C213.606 42.6107 213.851 42.872 214.171 43.064C214.502 43.2453 214.896 43.336 215.355 43.336ZM225.004 45.16C224.322 45.16 223.708 45.048 223.164 44.824C222.62 44.5893 222.156 44.2693 221.772 43.864C221.399 43.4587 221.111 42.9947 220.908 42.472C220.706 41.9493 220.604 41.4 220.604 40.824C220.604 40.2373 220.706 39.6827 220.908 39.16C221.111 38.6373 221.399 38.1733 221.772 37.768C222.156 37.3627 222.62 37.048 223.164 36.824C223.708 36.5893 224.322 36.472 225.004 36.472C225.687 36.472 226.295 36.5893 226.828 36.824C227.372 37.048 227.836 37.3627 228.22 37.768C228.604 38.1733 228.892 38.6373 229.084 39.16C229.287 39.6827 229.388 40.2373 229.388 40.824C229.388 41.4 229.287 41.9493 229.084 42.472C228.892 42.9947 228.604 43.4587 228.22 43.864C227.847 44.2693 227.388 44.5893 226.844 44.824C226.3 45.048 225.687 45.16 225.004 45.16ZM222.812 40.824C222.812 41.3147 222.908 41.752 223.1 42.136C223.292 42.5093 223.554 42.8027 223.884 43.016C224.215 43.2293 224.588 43.336 225.004 43.336C225.41 43.336 225.778 43.2293 226.108 43.016C226.439 42.792 226.7 42.4933 226.892 42.12C227.095 41.736 227.196 41.2987 227.196 40.808C227.196 40.328 227.095 39.896 226.892 39.512C226.7 39.128 226.439 38.8293 226.108 38.616C225.778 38.4027 225.41 38.296 225.004 38.296C224.588 38.296 224.215 38.408 223.884 38.632C223.554 38.8453 223.292 39.144 223.1 39.528C222.908 39.9013 222.812 40.3333 222.812 40.824ZM232.771 45V38.488H230.115V36.616H237.587V38.488H234.915V45H232.771ZM238.181 42.52C238.181 41.976 238.331 41.5013 238.629 41.096C238.939 40.68 239.365 40.36 239.909 40.136C240.453 39.912 241.077 39.8 241.781 39.8C242.133 39.8 242.491 39.8267 242.853 39.88C243.216 39.9333 243.531 40.0187 243.797 40.136V39.688C243.797 39.1547 243.637 38.744 243.317 38.456C243.008 38.168 242.544 38.024 241.925 38.024C241.467 38.024 241.029 38.104 240.613 38.264C240.197 38.424 239.76 38.6587 239.301 38.968L238.613 37.56C239.168 37.1973 239.733 36.9253 240.309 36.744C240.896 36.5627 241.509 36.472 242.149 36.472C243.344 36.472 244.272 36.7707 244.933 37.368C245.605 37.9653 245.941 38.8187 245.941 39.928V42.6C245.941 42.824 245.979 42.984 246.053 43.08C246.139 43.176 246.272 43.2347 246.453 43.256V45C246.261 45.032 246.085 45.0587 245.925 45.08C245.776 45.1013 245.648 45.112 245.541 45.112C245.115 45.112 244.789 45.016 244.565 44.824C244.352 44.632 244.219 44.3973 244.165 44.12L244.117 43.688C243.755 44.1573 243.301 44.52 242.757 44.776C242.213 45.032 241.659 45.16 241.093 45.16C240.539 45.16 240.037 45.048 239.589 44.824C239.152 44.5893 238.805 44.2747 238.549 43.88C238.304 43.4747 238.181 43.0213 238.181 42.52ZM243.397 42.952C243.515 42.824 243.611 42.696 243.685 42.568C243.76 42.44 243.797 42.3227 243.797 42.216V41.368C243.541 41.2613 243.264 41.1813 242.965 41.128C242.667 41.064 242.384 41.032 242.117 41.032C241.563 41.032 241.104 41.1547 240.741 41.4C240.389 41.6347 240.213 41.9493 240.213 42.344C240.213 42.5573 240.272 42.76 240.389 42.952C240.507 43.144 240.677 43.2987 240.901 43.416C241.125 43.5333 241.392 43.592 241.701 43.592C242.021 43.592 242.336 43.5333 242.645 43.416C242.955 43.288 243.205 43.1333 243.397 42.952ZM251.789 45V36.616H259.309V45H257.165V38.488H253.933V45H251.789ZM265.129 45.16C264.447 45.16 263.833 45.048 263.289 44.824C262.745 44.5893 262.281 44.2693 261.897 43.864C261.524 43.4587 261.236 42.9947 261.033 42.472C260.831 41.9493 260.729 41.4 260.729 40.824C260.729 40.2373 260.831 39.6827 261.033 39.16C261.236 38.6373 261.524 38.1733 261.897 37.768C262.281 37.3627 262.745 37.048 263.289 36.824C263.833 36.5893 264.447 36.472 265.129 36.472C265.812 36.472 266.42 36.5893 266.953 36.824C267.497 37.048 267.961 37.3627 268.345 37.768C268.729 38.1733 269.017 38.6373 269.209 39.16C269.412 39.6827 269.513 40.2373 269.513 40.824C269.513 41.4 269.412 41.9493 269.209 42.472C269.017 42.9947 268.729 43.4587 268.345 43.864C267.972 44.2693 267.513 44.5893 266.969 44.824C266.425 45.048 265.812 45.16 265.129 45.16ZM262.937 40.824C262.937 41.3147 263.033 41.752 263.225 42.136C263.417 42.5093 263.679 42.8027 264.009 43.016C264.34 43.2293 264.713 43.336 265.129 43.336C265.535 43.336 265.903 43.2293 266.233 43.016C266.564 42.792 266.825 42.4933 267.017 42.12C267.22 41.736 267.321 41.2987 267.321 40.808C267.321 40.328 267.22 39.896 267.017 39.512C266.825 39.128 266.564 38.8293 266.233 38.616C265.903 38.4027 265.535 38.296 265.129 38.296C264.713 38.296 264.34 38.408 264.009 38.632C263.679 38.8453 263.417 39.144 263.225 39.528C263.033 39.9013 262.937 40.3333 262.937 40.824ZM274.864 45.16C274.182 45.16 273.568 45.048 273.024 44.824C272.48 44.5893 272.016 44.2693 271.632 43.864C271.248 43.448 270.95 42.9787 270.736 42.456C270.534 41.9333 270.432 41.384 270.432 40.808C270.432 40.0187 270.608 39.2987 270.96 38.648C271.323 37.9867 271.835 37.4587 272.496 37.064C273.158 36.6693 273.942 36.472 274.848 36.472C275.755 36.472 276.534 36.6693 277.184 37.064C277.835 37.4587 278.32 37.976 278.64 38.616L276.544 39.256C276.363 38.9467 276.123 38.712 275.824 38.552C275.526 38.3813 275.195 38.296 274.832 38.296C274.427 38.296 274.054 38.4027 273.712 38.616C273.382 38.8187 273.12 39.112 272.928 39.496C272.736 39.8693 272.64 40.3067 272.64 40.808C272.64 41.2987 272.736 41.736 272.928 42.12C273.131 42.4933 273.398 42.792 273.728 43.016C274.059 43.2293 274.427 43.336 274.832 43.336C275.088 43.336 275.328 43.2933 275.552 43.208C275.787 43.1227 275.995 43.0053 276.176 42.856C276.358 42.7067 276.491 42.536 276.576 42.344L278.672 42.984C278.48 43.4 278.198 43.7733 277.824 44.104C277.462 44.4347 277.03 44.696 276.528 44.888C276.038 45.0693 275.483 45.16 274.864 45.16ZM279.384 45.112V43.208C279.64 43.1973 279.869 43.1333 280.072 43.016C280.274 42.8987 280.45 42.7013 280.6 42.424C280.76 42.136 280.882 41.736 280.968 41.224C281.064 40.712 281.128 40.056 281.16 39.256L281.272 36.616H287.56V45H285.416V38.488H283.16L283.128 39.464C283.085 40.5627 282.978 41.4747 282.808 42.2C282.637 42.9253 282.397 43.5013 282.088 43.928C281.789 44.344 281.416 44.6427 280.968 44.824C280.52 45.0053 279.992 45.1013 279.384 45.112ZM293.395 45.16C292.723 45.16 292.115 45.048 291.571 44.824C291.027 44.5893 290.563 44.2747 290.179 43.88C289.795 43.4747 289.497 43.016 289.283 42.504C289.081 41.9813 288.979 41.432 288.979 40.856C288.979 40.056 289.155 39.3253 289.507 38.664C289.87 38.0027 290.382 37.4747 291.043 37.08C291.715 36.6747 292.505 36.472 293.411 36.472C294.329 36.472 295.113 36.6747 295.763 37.08C296.414 37.4747 296.91 38.0027 297.251 38.664C297.603 39.3147 297.779 40.0187 297.779 40.776C297.779 40.904 297.774 41.0373 297.763 41.176C297.753 41.304 297.742 41.4107 297.731 41.496H291.251C291.294 41.9227 291.417 42.296 291.619 42.616C291.833 42.936 292.099 43.1813 292.419 43.352C292.75 43.512 293.102 43.592 293.475 43.592C293.902 43.592 294.302 43.4907 294.675 43.288C295.059 43.0747 295.321 42.7973 295.459 42.456L297.299 42.968C297.097 43.3947 296.803 43.7733 296.419 44.104C296.046 44.4347 295.603 44.696 295.091 44.888C294.579 45.0693 294.014 45.16 293.395 45.16ZM291.203 40.136H295.587C295.545 39.7093 295.422 39.3413 295.219 39.032C295.027 38.712 294.771 38.4667 294.451 38.296C294.131 38.1147 293.774 38.024 293.379 38.024C292.995 38.024 292.643 38.1147 292.323 38.296C292.014 38.4667 291.758 38.712 291.555 39.032C291.363 39.3413 291.246 39.7093 291.203 40.136ZM108.848 67.16C108.165 67.16 107.552 67.048 107.008 66.824C106.464 66.5893 106 66.2693 105.616 65.864C105.243 65.4587 104.955 64.9947 104.752 64.472C104.549 63.9493 104.448 63.4 104.448 62.824C104.448 62.2373 104.549 61.6827 104.752 61.16C104.955 60.6373 105.243 60.1733 105.616 59.768C106 59.3627 106.464 59.048 107.008 58.824C107.552 58.5893 108.165 58.472 108.848 58.472C109.531 58.472 110.139 58.5893 110.672 58.824C111.216 59.048 111.68 59.3627 112.064 59.768C112.448 60.1733 112.736 60.6373 112.928 61.16C113.131 61.6827 113.232 62.2373 113.232 62.824C113.232 63.4 113.131 63.9493 112.928 64.472C112.736 64.9947 112.448 65.4587 112.064 65.864C111.691 66.2693 111.232 66.5893 110.688 66.824C110.144 67.048 109.531 67.16 108.848 67.16ZM106.656 62.824C106.656 63.3147 106.752 63.752 106.944 64.136C107.136 64.5093 107.397 64.8027 107.728 65.016C108.059 65.2293 108.432 65.336 108.848 65.336C109.253 65.336 109.621 65.2293 109.952 65.016C110.283 64.792 110.544 64.4933 110.736 64.12C110.939 63.736 111.04 63.2987 111.04 62.808C111.04 62.328 110.939 61.896 110.736 61.512C110.544 61.128 110.283 60.8293 109.952 60.616C109.621 60.4027 109.253 60.296 108.848 60.296C108.432 60.296 108.059 60.408 107.728 60.632C107.397 60.8453 107.136 61.144 106.944 61.528C106.752 61.9013 106.656 62.3333 106.656 62.824ZM114.679 67V58.616H122.199V67H120.055V60.488H116.823V67H114.679ZM128.036 67.16C127.364 67.16 126.756 67.048 126.212 66.824C125.668 66.5893 125.204 66.2747 124.82 65.88C124.436 65.4747 124.137 65.016 123.924 64.504C123.721 63.9813 123.62 63.432 123.62 62.856C123.62 62.056 123.796 61.3253 124.148 60.664C124.511 60.0027 125.023 59.4747 125.684 59.08C126.356 58.6747 127.145 58.472 128.052 58.472C128.969 58.472 129.753 58.6747 130.404 59.08C131.055 59.4747 131.551 60.0027 131.892 60.664C132.244 61.3147 132.42 62.0187 132.42 62.776C132.42 62.904 132.415 63.0373 132.404 63.176C132.393 63.304 132.383 63.4107 132.372 63.496H125.892C125.935 63.9227 126.057 64.296 126.26 64.616C126.473 64.936 126.74 65.1813 127.06 65.352C127.391 65.512 127.743 65.592 128.116 65.592C128.543 65.592 128.943 65.4907 129.316 65.288C129.7 65.0747 129.961 64.7973 130.1 64.456L131.94 64.968C131.737 65.3947 131.444 65.7733 131.06 66.104C130.687 66.4347 130.244 66.696 129.732 66.888C129.22 67.0693 128.655 67.16 128.036 67.16ZM125.844 62.136H130.228C130.185 61.7093 130.063 61.3413 129.86 61.032C129.668 60.712 129.412 60.4667 129.092 60.296C128.772 60.1147 128.415 60.024 128.02 60.024C127.636 60.024 127.284 60.1147 126.964 60.296C126.655 60.4667 126.399 60.712 126.196 61.032C126.004 61.3413 125.887 61.7093 125.844 62.136ZM138.75 67.16C138.099 67.16 137.523 67.016 137.022 66.728C136.531 66.4293 136.147 66.0293 135.87 65.528V70.408H133.726V58.616H135.598V60.056C135.918 59.5653 136.323 59.1813 136.814 58.904C137.305 58.616 137.865 58.472 138.494 58.472C139.059 58.472 139.577 58.584 140.046 58.808C140.526 59.032 140.942 59.3467 141.294 59.752C141.646 60.1467 141.918 60.6053 142.11 61.128C142.313 61.64 142.414 62.1947 142.414 62.792C142.414 63.6027 142.254 64.3387 141.934 65C141.625 65.6613 141.193 66.1893 140.638 66.584C140.094 66.968 139.465 67.16 138.75 67.16ZM138.03 65.336C138.361 65.336 138.659 65.2667 138.926 65.128C139.193 64.9893 139.422 64.8027 139.614 64.568C139.817 64.3227 139.966 64.0507 140.062 63.752C140.169 63.4427 140.222 63.1227 140.222 62.792C140.222 62.44 140.163 62.1147 140.046 61.816C139.939 61.5173 139.779 61.256 139.566 61.032C139.353 60.7973 139.102 60.616 138.814 60.488C138.537 60.36 138.233 60.296 137.902 60.296C137.699 60.296 137.491 60.3333 137.278 60.408C137.075 60.472 136.878 60.568 136.686 60.696C136.494 60.824 136.323 60.9733 136.174 61.144C136.035 61.3147 135.934 61.5013 135.87 61.704V63.672C135.998 63.9813 136.169 64.264 136.382 64.52C136.606 64.776 136.862 64.9787 137.15 65.128C137.438 65.2667 137.731 65.336 138.03 65.336ZM143.291 64.52C143.291 63.976 143.44 63.5013 143.739 63.096C144.048 62.68 144.475 62.36 145.019 62.136C145.563 61.912 146.187 61.8 146.891 61.8C147.243 61.8 147.6 61.8267 147.963 61.88C148.325 61.9333 148.64 62.0187 148.907 62.136V61.688C148.907 61.1547 148.747 60.744 148.427 60.456C148.117 60.168 147.653 60.024 147.035 60.024C146.576 60.024 146.139 60.104 145.723 60.264C145.307 60.424 144.869 60.6587 144.411 60.968L143.723 59.56C144.277 59.1973 144.843 58.9253 145.419 58.744C146.005 58.5627 146.619 58.472 147.259 58.472C148.453 58.472 149.381 58.7707 150.043 59.368C150.715 59.9653 151.051 60.8187 151.051 61.928V64.6C151.051 64.824 151.088 64.984 151.163 65.08C151.248 65.176 151.381 65.2347 151.563 65.256V67C151.371 67.032 151.195 67.0587 151.035 67.08C150.885 67.1013 150.757 67.112 150.651 67.112C150.224 67.112 149.899 67.016 149.675 66.824C149.461 66.632 149.328 66.3973 149.275 66.12L149.227 65.688C148.864 66.1573 148.411 66.52 147.867 66.776C147.323 67.032 146.768 67.16 146.203 67.16C145.648 67.16 145.147 67.048 144.699 66.824C144.261 66.5893 143.915 66.2747 143.659 65.88C143.413 65.4747 143.291 65.0213 143.291 64.52ZM148.507 64.952C148.624 64.824 148.72 64.696 148.795 64.568C148.869 64.44 148.907 64.3227 148.907 64.216V63.368C148.651 63.2613 148.373 63.1813 148.075 63.128C147.776 63.064 147.493 63.032 147.227 63.032C146.672 63.032 146.213 63.1547 145.851 63.4C145.499 63.6347 145.323 63.9493 145.323 64.344C145.323 64.5573 145.381 64.76 145.499 64.952C145.616 65.144 145.787 65.2987 146.011 65.416C146.235 65.5333 146.501 65.592 146.811 65.592C147.131 65.592 147.445 65.5333 147.755 65.416C148.064 65.288 148.315 65.1333 148.507 64.952ZM159.582 69.032V67H153.054V58.616H155.198V65.128H158.142V58.616H160.286V65.128H161.47V69.032H159.582ZM162.867 67V58.632H165.011V64.136L168.771 58.616H170.723V67H168.579V61.624L164.867 67H162.867ZM172.679 67V58.632H174.823V64.136L178.583 58.616H180.535V67H178.391V61.624L174.679 67H172.679Z" fill="white"/>
<circle cx="49" cy="51" r="35" fill="white"/>
<path d="M48.958 60.4304H50.042V61.5144H48.958V60.4304Z" fill="url(#paint1_linear_9_33)"/>
<path d="M68 55.5525C68 54.6559 67.2705 53.9265 66.374 53.9265H66.288C66.3442 53.7317 66.3734 53.5275 66.3734 53.3187C66.3734 52.7384 66.1486 52.194 65.7404 51.7858L59.2252 45.2706C58.715 44.7604 58.0345 44.4795 57.309 44.4795C56.5834 44.4795 55.9029 44.7605 55.3927 45.2706L50.9627 49.7006H49.2437L44.4395 44.8963C44.3152 44.7721 44.1817 44.663 44.0413 44.568C44.8579 43.763 45.3262 42.6637 45.3262 41.4856C45.3262 39.0948 43.3811 37.1497 40.9902 37.1497C38.9982 37.1497 37.3168 38.5004 36.8108 40.3336L36.0336 39.5564C35.1884 38.7112 33.8129 38.711 32.9676 39.5564C32.1224 40.4016 32.1224 41.777 32.9676 42.6223L33.4566 43.1113C33.292 43.1897 33.1403 43.2965 33.0078 43.429L31.4749 44.962C31.1687 45.2682 31 45.6765 31 46.1117C31 46.5469 31.1687 46.9552 31.4748 47.2614L33.0916 48.8783L33.8581 48.1118L32.2412 46.495C32.1398 46.3935 32.0839 46.2574 32.0839 46.1118C32.0839 45.9661 32.1398 45.8301 32.2413 45.7285L33.7743 44.1955C33.8757 44.094 34.0118 44.0382 34.1575 44.0382C34.3032 44.0382 34.4392 44.094 34.5407 44.1955L45.3558 55.0105H66.374C66.6729 55.0105 66.916 55.2536 66.916 55.5525V58.2625H44.0088L34.6246 48.8783L33.8581 49.6448L42.4759 58.2625H31V61.5144H33.168V65.8504H36.4199V61.5144H47.874V60.4305H32.084V59.3465H66.916V60.4305H51.126V61.5144H62.5801V65.8504H65.832V61.5144H68V55.5525ZM40.9902 38.2336C42.7833 38.2336 44.2422 39.6925 44.2422 41.4856C44.2422 42.5435 43.7386 43.5168 42.8855 44.1281C42.2475 44.0428 41.5847 44.1838 41.0288 44.5515L37.7464 41.2691C37.8582 39.5766 39.2699 38.2336 40.9902 38.2336ZM33.7342 41.8558C33.3115 41.4331 33.3115 40.7455 33.7342 40.3228C34.1569 39.9002 34.8445 39.9004 35.2671 40.3228L40.9902 46.046L41.3734 45.6628C42.0075 45.0289 43.0392 45.0289 43.6729 45.6628L48.2901 50.2799L45.5389 53.6606L33.7342 41.8558ZM46.7202 53.9265L49.277 50.7845H51.4116L55.0094 47.1868L57.3122 49.4895L52.9518 53.9264H46.7202V53.9265ZM54.4717 53.9265L58.0787 50.2561L61.7492 53.9265H54.4717ZM65.105 53.9265H63.2821L55.776 46.4203L56.1593 46.037C56.4647 45.7316 56.873 45.5634 57.309 45.5634C57.7449 45.5634 58.1533 45.7316 58.4586 46.037L64.9738 52.5522C65.1773 52.7557 65.2894 53.0279 65.2894 53.3187C65.2894 53.5394 65.2249 53.7492 65.105 53.9265ZM35.3359 64.7663H34.252V61.5143H35.3359V64.7663ZM64.748 64.7663H63.6641V61.5143H64.748V64.7663Z" fill="url(#paint2_linear_9_33)"/>
<path d="M42.4835 47.5435L43.2498 46.7771L44.0162 47.5435L43.2498 48.3098L42.4835 47.5435Z" fill="url(#paint3_linear_9_33)"/>
<path d="M44.0164 49.0737L44.7827 48.3074L45.5491 49.0737L44.7827 49.8401L44.0164 49.0737Z" fill="url(#paint4_linear_9_33)"/>
<defs>
<linearGradient id="paint0_linear_9_33" x1="183.5" y1="0" x2="183.5" y2="100" gradientUnits="userSpaceOnUse">
<stop stop-color="#27C8DA"/>
<stop offset="1" stop-color="#24BFD0"/>
</linearGradient>
<linearGradient id="paint1_linear_9_33" x1="49.5" y1="60.4304" x2="49.5" y2="61.5144" gradientUnits="userSpaceOnUse">
<stop stop-color="#27C8DA"/>
<stop offset="1" stop-color="#24BFD0"/>
</linearGradient>
<linearGradient id="paint2_linear_9_33" x1="49.5" y1="37.1497" x2="49.5" y2="65.8504" gradientUnits="userSpaceOnUse">
<stop stop-color="#27C8DA"/>
<stop offset="1" stop-color="#24BFD0"/>
</linearGradient>
<linearGradient id="paint3_linear_9_33" x1="42.8666" y1="47.1603" x2="43.633" y2="47.9266" gradientUnits="userSpaceOnUse">
<stop stop-color="#27C8DA"/>
<stop offset="1" stop-color="#24BFD0"/>
</linearGradient>
<linearGradient id="paint4_linear_9_33" x1="44.3995" y1="48.6905" x2="45.1659" y2="49.4569" gradientUnits="userSpaceOnUse">
<stop stop-color="#27C8DA"/>
<stop offset="1" stop-color="#24BFD0"/>
</linearGradient>
</defs>
</svg>
