<svg width="153" height="309" viewBox="0 0 153 309" fill="none" xmlns="http://www.w3.org/2000/svg">
<path d="M18.7 27.55V32.95H13.55V38.6H7.5V32.95H2.35V27.55H7.5V21.9H13.55V27.55H18.7ZM22.5543 48C22.5543 46.5 22.671 45.15 22.9043 43.95C23.1376 42.75 23.5376 41.6333 24.1043 40.6C24.7043 39.5667 25.5043 38.6 26.5043 37.7C27.5376 36.7667 28.8376 35.8667 30.4043 35C31.771 34.2667 32.971 33.6333 34.0043 33.1C35.0376 32.5333 35.9043 32.0167 36.6043 31.55C37.3376 31.0833 37.8876 30.6167 38.2543 30.15C38.621 29.65 38.8043 29.0833 38.8043 28.45C38.8043 27.7833 38.621 27.1833 38.2543 26.65C37.8876 26.0833 37.371 25.6333 36.7043 25.3C36.0376 24.9667 35.2043 24.8 34.2043 24.8C33.4043 24.8 32.6543 24.9 31.9543 25.1C31.2876 25.3 30.6543 25.5833 30.0543 25.95C29.4876 26.3167 28.9543 26.7333 28.4543 27.2C27.9543 27.6333 27.5043 28.1 27.1043 28.6L22.8543 23.7C23.321 23.2333 23.9376 22.7333 24.7043 22.2C25.5043 21.6333 26.4376 21.1167 27.5043 20.65C28.6043 20.15 29.8043 19.75 31.1043 19.45C32.4376 19.1167 33.8543 18.95 35.3543 18.95C37.621 18.95 39.5543 19.3167 41.1543 20.05C42.7543 20.75 43.971 21.7333 44.8043 23C45.671 24.2667 46.1043 25.75 46.1043 27.45C46.1043 28.6167 45.8876 29.65 45.4543 30.55C45.021 31.45 44.471 32.25 43.8043 32.95C43.1376 33.6167 42.4043 34.2167 41.6043 34.75C40.8376 35.2833 40.0876 35.75 39.3543 36.15C38.321 36.6833 37.3876 37.1833 36.5543 37.65C35.721 38.0833 34.9876 38.5333 34.3543 39C33.721 39.4333 33.1543 39.8833 32.6543 40.35C32.1876 40.8167 31.771 41.35 31.4043 41.95H46.6543V48H22.5543ZM88.8887 37.5C88.8887 39.7 88.2887 41.6167 87.0887 43.25C85.922 44.8833 84.3553 46.1667 82.3887 47.1C80.422 48 78.272 48.45 75.9387 48.45C73.572 48.45 71.4053 47.9667 69.4387 47C67.5053 46.0333 65.9553 44.7167 64.7887 43.05C63.6553 41.35 63.0887 39.4167 63.0887 37.25C63.0887 35.9167 63.372 34.7167 63.9387 33.65C64.5053 32.55 65.2053 31.6167 66.0387 30.85C66.9053 30.05 67.772 29.4333 68.6387 29C67.8387 28.6 67.0887 28.0667 66.3887 27.4C65.722 26.7333 65.1887 25.9667 64.7887 25.1C64.3887 24.2333 64.1887 23.3167 64.1887 22.35C64.1887 20.7833 64.5387 19.3833 65.2387 18.15C65.9387 16.9167 66.872 15.8833 68.0387 15.05C69.2053 14.1833 70.472 13.55 71.8387 13.15C73.2387 12.7167 74.622 12.5 75.9887 12.5C77.322 12.5 78.6887 12.7167 80.0887 13.15C81.4887 13.55 82.772 14.1667 83.9387 15C85.1053 15.8333 86.0387 16.8667 86.7387 18.1C87.472 19.3 87.8387 20.7 87.8387 22.3C87.8387 23.2333 87.622 24.15 87.1887 25.05C86.7887 25.9167 86.2387 26.7 85.5387 27.4C84.872 28.0667 84.1053 28.6 83.2387 29C84.2053 29.5 85.122 30.15 85.9887 30.95C86.8553 31.75 87.5553 32.7 88.0887 33.8C88.622 34.9 88.8887 36.1333 88.8887 37.5ZM82.0887 37.1C82.0887 36.2333 81.922 35.4833 81.5887 34.85C81.2553 34.1833 80.7887 33.6333 80.1887 33.2C79.5887 32.7333 78.922 32.3833 78.1887 32.15C77.4553 31.9167 76.7053 31.8 75.9387 31.8C74.872 31.8 73.872 32.0167 72.9387 32.45C72.0387 32.8833 71.3053 33.5 70.7387 34.3C70.172 35.1 69.8887 36.0333 69.8887 37.1C69.8887 37.9 70.0553 38.6333 70.3887 39.3C70.7553 39.9333 71.222 40.4833 71.7887 40.95C72.3887 41.4167 73.0387 41.7833 73.7387 42.05C74.472 42.2833 75.222 42.4 75.9887 42.4C77.0553 42.4 78.0553 42.1667 78.9887 41.7C79.922 41.2333 80.672 40.6 81.2387 39.8C81.8053 39 82.0887 38.1 82.0887 37.1ZM70.9887 22.55C70.9887 23.45 71.2387 24.2167 71.7387 24.85C72.2387 25.4833 72.872 25.9667 73.6387 26.3C74.4387 26.6 75.222 26.75 75.9887 26.75C76.7887 26.75 77.5553 26.5833 78.2887 26.25C79.0553 25.9167 79.6887 25.45 80.1887 24.85C80.722 24.2167 80.9887 23.4333 80.9887 22.5C80.9887 21.6667 80.7553 20.95 80.2887 20.35C79.822 19.75 79.2053 19.2833 78.4387 18.95C77.7053 18.6167 76.872 18.45 75.9387 18.45C75.072 18.45 74.2553 18.6167 73.4887 18.95C72.722 19.2833 72.1053 19.7667 71.6387 20.4C71.2053 21 70.9887 21.7167 70.9887 22.55ZM119.314 33.35C119.314 36.2833 118.748 38.9 117.614 41.2C116.514 43.4667 114.981 45.25 113.014 46.55C111.081 47.85 108.881 48.5 106.414 48.5C103.948 48.5 101.731 47.85 99.7645 46.55C97.8311 45.25 96.2978 43.4667 95.1645 41.2C94.0645 38.9 93.5145 36.2833 93.5145 33.35C93.5145 30.4167 94.0645 27.8167 95.1645 25.55C96.2978 23.25 97.8311 21.45 99.7645 20.15C101.731 18.8167 103.948 18.15 106.414 18.15C108.881 18.15 111.081 18.8167 113.014 20.15C114.981 21.45 116.514 23.25 117.614 25.55C118.748 27.8167 119.314 30.4167 119.314 33.35ZM112.564 33.35C112.564 31.55 112.298 29.9833 111.764 28.65C111.264 27.2833 110.548 26.2167 109.614 25.45C108.681 24.6833 107.614 24.3 106.414 24.3C105.181 24.3 104.098 24.6833 103.164 25.45C102.231 26.2167 101.498 27.2833 100.964 28.65C100.464 29.9833 100.214 31.55 100.214 33.35C100.214 35.15 100.464 36.7167 100.964 38.05C101.498 39.3833 102.231 40.4333 103.164 41.2C104.098 41.9667 105.181 42.35 106.414 42.35C107.614 42.35 108.664 41.9667 109.564 41.2C110.498 40.4333 111.231 39.3833 111.764 38.05C112.298 36.6833 112.564 35.1167 112.564 33.35ZM150.027 33.35C150.027 36.2833 149.461 38.9 148.327 41.2C147.227 43.4667 145.694 45.25 143.727 46.55C141.794 47.85 139.594 48.5 137.127 48.5C134.661 48.5 132.444 47.85 130.477 46.55C128.544 45.25 127.011 43.4667 125.877 41.2C124.777 38.9 124.227 36.2833 124.227 33.35C124.227 30.4167 124.777 27.8167 125.877 25.55C127.011 23.25 128.544 21.45 130.477 20.15C132.444 18.8167 134.661 18.15 137.127 18.15C139.594 18.15 141.794 18.8167 143.727 20.15C145.694 21.45 147.227 23.25 148.327 25.55C149.461 27.8167 150.027 30.4167 150.027 33.35ZM143.277 33.35C143.277 31.55 143.011 29.9833 142.477 28.65C141.977 27.2833 141.261 26.2167 140.327 25.45C139.394 24.6833 138.327 24.3 137.127 24.3C135.894 24.3 134.811 24.6833 133.877 25.45C132.944 26.2167 132.211 27.2833 131.677 28.65C131.177 29.9833 130.927 31.55 130.927 33.35C130.927 35.15 131.177 36.7167 131.677 38.05C132.211 39.3833 132.944 40.4333 133.877 41.2C134.811 41.9667 135.894 42.35 137.127 42.35C138.327 42.35 139.377 41.9667 140.277 41.2C141.211 40.4333 141.944 39.3833 142.477 38.05C143.011 36.6833 143.277 35.1167 143.277 33.35Z" fill="url(#paint0_linear_14_436)"/>
<path d="M1.32 86V75.54H10.32V86H8.12V77.48H3.52V86H1.32ZM12.2202 82.94C12.2202 82.2733 12.4068 81.6933 12.7802 81.2C13.1668 80.6933 13.6935 80.3067 14.3602 80.04C15.0268 79.76 15.8002 79.62 16.6802 79.62C17.1468 79.62 17.6202 79.6533 18.1002 79.72C18.5935 79.7867 19.0268 79.8933 19.4002 80.04V79.38C19.4002 78.6467 19.1802 78.0733 18.7402 77.66C18.3002 77.2467 17.6668 77.04 16.8402 77.04C16.2535 77.04 15.7002 77.1467 15.1802 77.36C14.6602 77.56 14.1068 77.8467 13.5202 78.22L12.7802 76.74C13.4735 76.2733 14.1668 75.9267 14.8602 75.7C15.5668 75.4733 16.3068 75.36 17.0802 75.36C18.4802 75.36 19.5802 75.7333 20.3802 76.48C21.1935 77.2133 21.6002 78.26 21.6002 79.62V83.52C21.6002 83.7733 21.6402 83.9533 21.7202 84.06C21.8135 84.1667 21.9668 84.2267 22.1802 84.24V86C21.9802 86.04 21.8002 86.0667 21.6402 86.08C21.4802 86.0933 21.3468 86.1 21.2402 86.1C20.7735 86.1 20.4202 85.9867 20.1802 85.76C19.9402 85.5333 19.8002 85.2667 19.7602 84.96L19.7002 84.36C19.2468 84.9467 18.6668 85.4 17.9602 85.72C17.2535 86.04 16.5402 86.2 15.8202 86.2C15.1268 86.2 14.5068 86.06 13.9602 85.78C13.4135 85.4867 12.9868 85.0933 12.6802 84.6C12.3735 84.1067 12.2202 83.5533 12.2202 82.94ZM18.8802 83.58C19.0402 83.4067 19.1668 83.2333 19.2602 83.06C19.3535 82.8867 19.4002 82.7333 19.4002 82.6V81.4C19.0268 81.2533 18.6335 81.1467 18.2202 81.08C17.8068 81 17.4002 80.96 17.0002 80.96C16.2002 80.96 15.5468 81.12 15.0402 81.44C14.5468 81.76 14.3002 82.2 14.3002 82.76C14.3002 83.0667 14.3802 83.36 14.5402 83.64C14.7135 83.92 14.9535 84.1467 15.2602 84.32C15.5802 84.4933 15.9735 84.58 16.4402 84.58C16.9202 84.58 17.3802 84.4867 17.8202 84.3C18.2602 84.1133 18.6135 83.8733 18.8802 83.58ZM32.4692 88.5V86H24.2692V75.54H26.4692V84.08H30.7492V75.54H32.9492V84.08H34.4092V88.5H32.4692ZM36.2614 86V75.56H38.4614V83.06L43.7614 75.54H45.7614V86H43.5614V78.66L38.3214 86H36.2614ZM53.1303 86.2C52.317 86.2 51.577 86.06 50.9103 85.78C50.257 85.4867 49.6903 85.0933 49.2103 84.6C48.7303 84.0933 48.357 83.52 48.0903 82.88C47.837 82.2267 47.7103 81.5333 47.7103 80.8C47.7103 79.8133 47.937 78.9133 48.3903 78.1C48.8436 77.2733 49.477 76.6133 50.2903 76.12C51.1036 75.6133 52.057 75.36 53.1503 75.36C54.2436 75.36 55.1836 75.6133 55.9703 76.12C56.7703 76.6133 57.3903 77.2667 57.8303 78.08C58.2703 78.8933 58.4903 79.7667 58.4903 80.7C58.4903 80.86 58.4836 81.0133 58.4703 81.16C58.457 81.2933 58.4436 81.4067 58.4303 81.5H50.0503C50.0903 82.1133 50.257 82.6533 50.5503 83.12C50.857 83.5733 51.2436 83.9333 51.7103 84.2C52.177 84.4533 52.677 84.58 53.2103 84.58C53.797 84.58 54.3503 84.4333 54.8703 84.14C55.4036 83.8467 55.7636 83.46 55.9503 82.98L57.8303 83.52C57.6036 84.0267 57.257 84.4867 56.7903 84.9C56.337 85.3 55.797 85.62 55.1703 85.86C54.5436 86.0867 53.8636 86.2 53.1303 86.2ZM49.9903 80.04H56.3103C56.2703 79.44 56.097 78.9133 55.7903 78.46C55.497 77.9933 55.117 77.6333 54.6503 77.38C54.197 77.1133 53.6903 76.98 53.1303 76.98C52.5836 76.98 52.077 77.1133 51.6103 77.38C51.157 77.6333 50.7836 77.9933 50.4903 78.46C50.197 78.9133 50.0303 79.44 49.9903 80.04ZM60.2848 86V75.54H62.4848V79.7H67.3448V75.54H69.5448V86H67.3448V81.6H62.4848V86H60.2848ZM74.6789 86V77.48H71.2189V75.54H80.3589V77.48H76.8789V86H74.6789ZM86.7036 86.2C85.8769 86.2 85.1369 86.06 84.4836 85.78C83.8303 85.4867 83.2636 85.0867 82.7836 84.58C82.3169 84.0733 81.9569 83.5 81.7036 82.86C81.4503 82.2067 81.3236 81.5133 81.3236 80.78C81.3236 80.0467 81.4503 79.3533 81.7036 78.7C81.9569 78.0467 82.3169 77.4733 82.7836 76.98C83.2636 76.4733 83.8303 76.08 84.4836 75.8C85.1503 75.5067 85.8903 75.36 86.7036 75.36C87.5169 75.36 88.2503 75.5067 88.9036 75.8C89.5703 76.08 90.1369 76.4733 90.6036 76.98C91.0836 77.4733 91.4503 78.0467 91.7036 78.7C91.9569 79.3533 92.0836 80.0467 92.0836 80.78C92.0836 81.5133 91.9569 82.2067 91.7036 82.86C91.4503 83.5 91.0836 84.0733 90.6036 84.58C90.1369 85.0867 89.5703 85.4867 88.9036 85.78C88.2503 86.06 87.5169 86.2 86.7036 86.2ZM83.5836 80.8C83.5836 81.4667 83.7236 82.0667 84.0036 82.6C84.2836 83.1333 84.6569 83.5533 85.1236 83.86C85.5903 84.1667 86.1169 84.32 86.7036 84.32C87.2769 84.32 87.7969 84.1667 88.2636 83.86C88.7436 83.54 89.1236 83.1133 89.4036 82.58C89.6836 82.0333 89.8236 81.4333 89.8236 80.78C89.8236 80.1133 89.6836 79.5133 89.4036 78.98C89.1236 78.4467 88.7436 78.0267 88.2636 77.72C87.7969 77.4 87.2769 77.24 86.7036 77.24C86.1169 77.24 85.5903 77.4 85.1236 77.72C84.6569 78.04 84.2836 78.4667 84.0036 79C83.7236 79.52 83.5836 80.12 83.5836 80.8ZM94.0348 86V75.54H99.6348C100.302 75.54 100.848 75.6667 101.275 75.92C101.715 76.16 102.042 76.4733 102.255 76.86C102.468 77.2333 102.575 77.6467 102.575 78.1C102.575 78.6733 102.442 79.18 102.175 79.62C101.908 80.06 101.515 80.3933 100.995 80.62C101.595 80.7933 102.082 81.1 102.455 81.54C102.842 81.9667 103.035 82.52 103.035 83.2C103.035 83.8133 102.888 84.3333 102.595 84.76C102.302 85.1733 101.882 85.4867 101.335 85.7C100.802 85.9 100.175 86 99.4548 86H94.0348ZM96.1148 84.48H99.3948C99.6748 84.48 99.9282 84.4133 100.155 84.28C100.395 84.1333 100.582 83.9467 100.715 83.72C100.848 83.48 100.915 83.2267 100.915 82.96C100.915 82.6667 100.848 82.4067 100.715 82.18C100.595 81.9533 100.422 81.7733 100.195 81.64C99.9815 81.5067 99.7282 81.44 99.4348 81.44H96.1148V84.48ZM96.1148 80.02H99.0748C99.3548 80.02 99.6015 79.9533 99.8148 79.82C100.028 79.6733 100.195 79.48 100.315 79.24C100.435 79 100.495 78.7467 100.495 78.48C100.495 78.0933 100.368 77.76 100.115 77.48C99.8615 77.2 99.5282 77.06 99.1148 77.06H96.1148V80.02Z" fill="#717992"/>
<path d="M18.7 135.55V140.95H13.55V146.6H7.5V140.95H2.35V135.55H7.5V129.9H13.55V135.55H18.7ZM22.5543 156C22.5543 154.5 22.671 153.15 22.9043 151.95C23.1376 150.75 23.5376 149.633 24.1043 148.6C24.7043 147.567 25.5043 146.6 26.5043 145.7C27.5376 144.767 28.8376 143.867 30.4043 143C31.771 142.267 32.971 141.633 34.0043 141.1C35.0376 140.533 35.9043 140.017 36.6043 139.55C37.3376 139.083 37.8876 138.617 38.2543 138.15C38.621 137.65 38.8043 137.083 38.8043 136.45C38.8043 135.783 38.621 135.183 38.2543 134.65C37.8876 134.083 37.371 133.633 36.7043 133.3C36.0376 132.967 35.2043 132.8 34.2043 132.8C33.4043 132.8 32.6543 132.9 31.9543 133.1C31.2876 133.3 30.6543 133.583 30.0543 133.95C29.4876 134.317 28.9543 134.733 28.4543 135.2C27.9543 135.633 27.5043 136.1 27.1043 136.6L22.8543 131.7C23.321 131.233 23.9376 130.733 24.7043 130.2C25.5043 129.633 26.4376 129.117 27.5043 128.65C28.6043 128.15 29.8043 127.75 31.1043 127.45C32.4376 127.117 33.8543 126.95 35.3543 126.95C37.621 126.95 39.5543 127.317 41.1543 128.05C42.7543 128.75 43.971 129.733 44.8043 131C45.671 132.267 46.1043 133.75 46.1043 135.45C46.1043 136.617 45.8876 137.65 45.4543 138.55C45.021 139.45 44.471 140.25 43.8043 140.95C43.1376 141.617 42.4043 142.217 41.6043 142.75C40.8376 143.283 40.0876 143.75 39.3543 144.15C38.321 144.683 37.3876 145.183 36.5543 145.65C35.721 146.083 34.9876 146.533 34.3543 147C33.721 147.433 33.1543 147.883 32.6543 148.35C32.1876 148.817 31.771 149.35 31.4043 149.95H46.6543V156H22.5543ZM88.8887 145.5C88.8887 147.7 88.2887 149.617 87.0887 151.25C85.922 152.883 84.3553 154.167 82.3887 155.1C80.422 156 78.272 156.45 75.9387 156.45C73.572 156.45 71.4053 155.967 69.4387 155C67.5053 154.033 65.9553 152.717 64.7887 151.05C63.6553 149.35 63.0887 147.417 63.0887 145.25C63.0887 143.917 63.372 142.717 63.9387 141.65C64.5053 140.55 65.2053 139.617 66.0387 138.85C66.9053 138.05 67.772 137.433 68.6387 137C67.8387 136.6 67.0887 136.067 66.3887 135.4C65.722 134.733 65.1887 133.967 64.7887 133.1C64.3887 132.233 64.1887 131.317 64.1887 130.35C64.1887 128.783 64.5387 127.383 65.2387 126.15C65.9387 124.917 66.872 123.883 68.0387 123.05C69.2053 122.183 70.472 121.55 71.8387 121.15C73.2387 120.717 74.622 120.5 75.9887 120.5C77.322 120.5 78.6887 120.717 80.0887 121.15C81.4887 121.55 82.772 122.167 83.9387 123C85.1053 123.833 86.0387 124.867 86.7387 126.1C87.472 127.3 87.8387 128.7 87.8387 130.3C87.8387 131.233 87.622 132.15 87.1887 133.05C86.7887 133.917 86.2387 134.7 85.5387 135.4C84.872 136.067 84.1053 136.6 83.2387 137C84.2053 137.5 85.122 138.15 85.9887 138.95C86.8553 139.75 87.5553 140.7 88.0887 141.8C88.622 142.9 88.8887 144.133 88.8887 145.5ZM82.0887 145.1C82.0887 144.233 81.922 143.483 81.5887 142.85C81.2553 142.183 80.7887 141.633 80.1887 141.2C79.5887 140.733 78.922 140.383 78.1887 140.15C77.4553 139.917 76.7053 139.8 75.9387 139.8C74.872 139.8 73.872 140.017 72.9387 140.45C72.0387 140.883 71.3053 141.5 70.7387 142.3C70.172 143.1 69.8887 144.033 69.8887 145.1C69.8887 145.9 70.0553 146.633 70.3887 147.3C70.7553 147.933 71.222 148.483 71.7887 148.95C72.3887 149.417 73.0387 149.783 73.7387 150.05C74.472 150.283 75.222 150.4 75.9887 150.4C77.0553 150.4 78.0553 150.167 78.9887 149.7C79.922 149.233 80.672 148.6 81.2387 147.8C81.8053 147 82.0887 146.1 82.0887 145.1ZM70.9887 130.55C70.9887 131.45 71.2387 132.217 71.7387 132.85C72.2387 133.483 72.872 133.967 73.6387 134.3C74.4387 134.6 75.222 134.75 75.9887 134.75C76.7887 134.75 77.5553 134.583 78.2887 134.25C79.0553 133.917 79.6887 133.45 80.1887 132.85C80.722 132.217 80.9887 131.433 80.9887 130.5C80.9887 129.667 80.7553 128.95 80.2887 128.35C79.822 127.75 79.2053 127.283 78.4387 126.95C77.7053 126.617 76.872 126.45 75.9387 126.45C75.072 126.45 74.2553 126.617 73.4887 126.95C72.722 127.283 72.1053 127.767 71.6387 128.4C71.2053 129 70.9887 129.717 70.9887 130.55ZM119.314 141.35C119.314 144.283 118.748 146.9 117.614 149.2C116.514 151.467 114.981 153.25 113.014 154.55C111.081 155.85 108.881 156.5 106.414 156.5C103.948 156.5 101.731 155.85 99.7645 154.55C97.8311 153.25 96.2978 151.467 95.1645 149.2C94.0645 146.9 93.5145 144.283 93.5145 141.35C93.5145 138.417 94.0645 135.817 95.1645 133.55C96.2978 131.25 97.8311 129.45 99.7645 128.15C101.731 126.817 103.948 126.15 106.414 126.15C108.881 126.15 111.081 126.817 113.014 128.15C114.981 129.45 116.514 131.25 117.614 133.55C118.748 135.817 119.314 138.417 119.314 141.35ZM112.564 141.35C112.564 139.55 112.298 137.983 111.764 136.65C111.264 135.283 110.548 134.217 109.614 133.45C108.681 132.683 107.614 132.3 106.414 132.3C105.181 132.3 104.098 132.683 103.164 133.45C102.231 134.217 101.498 135.283 100.964 136.65C100.464 137.983 100.214 139.55 100.214 141.35C100.214 143.15 100.464 144.717 100.964 146.05C101.498 147.383 102.231 148.433 103.164 149.2C104.098 149.967 105.181 150.35 106.414 150.35C107.614 150.35 108.664 149.967 109.564 149.2C110.498 148.433 111.231 147.383 111.764 146.05C112.298 144.683 112.564 143.117 112.564 141.35ZM150.027 141.35C150.027 144.283 149.461 146.9 148.327 149.2C147.227 151.467 145.694 153.25 143.727 154.55C141.794 155.85 139.594 156.5 137.127 156.5C134.661 156.5 132.444 155.85 130.477 154.55C128.544 153.25 127.011 151.467 125.877 149.2C124.777 146.9 124.227 144.283 124.227 141.35C124.227 138.417 124.777 135.817 125.877 133.55C127.011 131.25 128.544 129.45 130.477 128.15C132.444 126.817 134.661 126.15 137.127 126.15C139.594 126.15 141.794 126.817 143.727 128.15C145.694 129.45 147.227 131.25 148.327 133.55C149.461 135.817 150.027 138.417 150.027 141.35ZM143.277 141.35C143.277 139.55 143.011 137.983 142.477 136.65C141.977 135.283 141.261 134.217 140.327 133.45C139.394 132.683 138.327 132.3 137.127 132.3C135.894 132.3 134.811 132.683 133.877 133.45C132.944 134.217 132.211 135.283 131.677 136.65C131.177 137.983 130.927 139.55 130.927 141.35C130.927 143.15 131.177 144.717 131.677 146.05C132.211 147.383 132.944 148.433 133.877 149.2C134.811 149.967 135.894 150.35 137.127 150.35C138.327 150.35 139.377 149.967 140.277 149.2C141.211 148.433 141.944 147.383 142.477 146.05C143.011 144.683 143.277 143.117 143.277 141.35Z" fill="url(#paint1_linear_14_436)"/>
<path d="M1.32 194V183.54H10.32V194H8.12V185.48H3.52V194H1.32ZM12.2202 190.94C12.2202 190.273 12.4068 189.693 12.7802 189.2C13.1668 188.693 13.6935 188.307 14.3602 188.04C15.0268 187.76 15.8002 187.62 16.6802 187.62C17.1468 187.62 17.6202 187.653 18.1002 187.72C18.5935 187.787 19.0268 187.893 19.4002 188.04V187.38C19.4002 186.647 19.1802 186.073 18.7402 185.66C18.3002 185.247 17.6668 185.04 16.8402 185.04C16.2535 185.04 15.7002 185.147 15.1802 185.36C14.6602 185.56 14.1068 185.847 13.5202 186.22L12.7802 184.74C13.4735 184.273 14.1668 183.927 14.8602 183.7C15.5668 183.473 16.3068 183.36 17.0802 183.36C18.4802 183.36 19.5802 183.733 20.3802 184.48C21.1935 185.213 21.6002 186.26 21.6002 187.62V191.52C21.6002 191.773 21.6402 191.953 21.7202 192.06C21.8135 192.167 21.9668 192.227 22.1802 192.24V194C21.9802 194.04 21.8002 194.067 21.6402 194.08C21.4802 194.093 21.3468 194.1 21.2402 194.1C20.7735 194.1 20.4202 193.987 20.1802 193.76C19.9402 193.533 19.8002 193.267 19.7602 192.96L19.7002 192.36C19.2468 192.947 18.6668 193.4 17.9602 193.72C17.2535 194.04 16.5402 194.2 15.8202 194.2C15.1268 194.2 14.5068 194.06 13.9602 193.78C13.4135 193.487 12.9868 193.093 12.6802 192.6C12.3735 192.107 12.2202 191.553 12.2202 190.94ZM18.8802 191.58C19.0402 191.407 19.1668 191.233 19.2602 191.06C19.3535 190.887 19.4002 190.733 19.4002 190.6V189.4C19.0268 189.253 18.6335 189.147 18.2202 189.08C17.8068 189 17.4002 188.96 17.0002 188.96C16.2002 188.96 15.5468 189.12 15.0402 189.44C14.5468 189.76 14.3002 190.2 14.3002 190.76C14.3002 191.067 14.3802 191.36 14.5402 191.64C14.7135 191.92 14.9535 192.147 15.2602 192.32C15.5802 192.493 15.9735 192.58 16.4402 192.58C16.9202 192.58 17.3802 192.487 17.8202 192.3C18.2602 192.113 18.6135 191.873 18.8802 191.58ZM32.4692 196.5V194H24.2692V183.54H26.4692V192.08H30.7492V183.54H32.9492V192.08H34.4092V196.5H32.4692ZM36.2614 194V183.56H38.4614V191.06L43.7614 183.54H45.7614V194H43.5614V186.66L38.3214 194H36.2614ZM53.1303 194.2C52.317 194.2 51.577 194.06 50.9103 193.78C50.257 193.487 49.6903 193.093 49.2103 192.6C48.7303 192.093 48.357 191.52 48.0903 190.88C47.837 190.227 47.7103 189.533 47.7103 188.8C47.7103 187.813 47.937 186.913 48.3903 186.1C48.8436 185.273 49.477 184.613 50.2903 184.12C51.1036 183.613 52.057 183.36 53.1503 183.36C54.2436 183.36 55.1836 183.613 55.9703 184.12C56.7703 184.613 57.3903 185.267 57.8303 186.08C58.2703 186.893 58.4903 187.767 58.4903 188.7C58.4903 188.86 58.4836 189.013 58.4703 189.16C58.457 189.293 58.4436 189.407 58.4303 189.5H50.0503C50.0903 190.113 50.257 190.653 50.5503 191.12C50.857 191.573 51.2436 191.933 51.7103 192.2C52.177 192.453 52.677 192.58 53.2103 192.58C53.797 192.58 54.3503 192.433 54.8703 192.14C55.4036 191.847 55.7636 191.46 55.9503 190.98L57.8303 191.52C57.6036 192.027 57.257 192.487 56.7903 192.9C56.337 193.3 55.797 193.62 55.1703 193.86C54.5436 194.087 53.8636 194.2 53.1303 194.2ZM49.9903 188.04H56.3103C56.2703 187.44 56.097 186.913 55.7903 186.46C55.497 185.993 55.117 185.633 54.6503 185.38C54.197 185.113 53.6903 184.98 53.1303 184.98C52.5836 184.98 52.077 185.113 51.6103 185.38C51.157 185.633 50.7836 185.993 50.4903 186.46C50.197 186.913 50.0303 187.44 49.9903 188.04ZM60.2848 194V183.54H62.4848V187.7H67.3448V183.54H69.5448V194H67.3448V189.6H62.4848V194H60.2848ZM74.6789 194V185.48H71.2189V183.54H80.3589V185.48H76.8789V194H74.6789ZM86.7036 194.2C85.8769 194.2 85.1369 194.06 84.4836 193.78C83.8303 193.487 83.2636 193.087 82.7836 192.58C82.3169 192.073 81.9569 191.5 81.7036 190.86C81.4503 190.207 81.3236 189.513 81.3236 188.78C81.3236 188.047 81.4503 187.353 81.7036 186.7C81.9569 186.047 82.3169 185.473 82.7836 184.98C83.2636 184.473 83.8303 184.08 84.4836 183.8C85.1503 183.507 85.8903 183.36 86.7036 183.36C87.5169 183.36 88.2503 183.507 88.9036 183.8C89.5703 184.08 90.1369 184.473 90.6036 184.98C91.0836 185.473 91.4503 186.047 91.7036 186.7C91.9569 187.353 92.0836 188.047 92.0836 188.78C92.0836 189.513 91.9569 190.207 91.7036 190.86C91.4503 191.5 91.0836 192.073 90.6036 192.58C90.1369 193.087 89.5703 193.487 88.9036 193.78C88.2503 194.06 87.5169 194.2 86.7036 194.2ZM83.5836 188.8C83.5836 189.467 83.7236 190.067 84.0036 190.6C84.2836 191.133 84.6569 191.553 85.1236 191.86C85.5903 192.167 86.1169 192.32 86.7036 192.32C87.2769 192.32 87.7969 192.167 88.2636 191.86C88.7436 191.54 89.1236 191.113 89.4036 190.58C89.6836 190.033 89.8236 189.433 89.8236 188.78C89.8236 188.113 89.6836 187.513 89.4036 186.98C89.1236 186.447 88.7436 186.027 88.2636 185.72C87.7969 185.4 87.2769 185.24 86.7036 185.24C86.1169 185.24 85.5903 185.4 85.1236 185.72C84.6569 186.04 84.2836 186.467 84.0036 187C83.7236 187.52 83.5836 188.12 83.5836 188.8ZM94.0348 194V183.54H99.6348C100.302 183.54 100.848 183.667 101.275 183.92C101.715 184.16 102.042 184.473 102.255 184.86C102.468 185.233 102.575 185.647 102.575 186.1C102.575 186.673 102.442 187.18 102.175 187.62C101.908 188.06 101.515 188.393 100.995 188.62C101.595 188.793 102.082 189.1 102.455 189.54C102.842 189.967 103.035 190.52 103.035 191.2C103.035 191.813 102.888 192.333 102.595 192.76C102.302 193.173 101.882 193.487 101.335 193.7C100.802 193.9 100.175 194 99.4548 194H94.0348ZM96.1148 192.48H99.3948C99.6748 192.48 99.9282 192.413 100.155 192.28C100.395 192.133 100.582 191.947 100.715 191.72C100.848 191.48 100.915 191.227 100.915 190.96C100.915 190.667 100.848 190.407 100.715 190.18C100.595 189.953 100.422 189.773 100.195 189.64C99.9815 189.507 99.7282 189.44 99.4348 189.44H96.1148V192.48ZM96.1148 188.02H99.0748C99.3548 188.02 99.6015 187.953 99.8148 187.82C100.028 187.673 100.195 187.48 100.315 187.24C100.435 187 100.495 186.747 100.495 186.48C100.495 186.093 100.368 185.76 100.115 185.48C99.8615 185.2 99.5282 185.06 99.1148 185.06H96.1148V188.02Z" fill="#717992"/>
<path d="M18.7 243.55V248.95H13.55V254.6H7.5V248.95H2.35V243.55H7.5V237.9H13.55V243.55H18.7ZM22.5543 264C22.5543 262.5 22.671 261.15 22.9043 259.95C23.1376 258.75 23.5376 257.633 24.1043 256.6C24.7043 255.567 25.5043 254.6 26.5043 253.7C27.5376 252.767 28.8376 251.867 30.4043 251C31.771 250.267 32.971 249.633 34.0043 249.1C35.0376 248.533 35.9043 248.017 36.6043 247.55C37.3376 247.083 37.8876 246.617 38.2543 246.15C38.621 245.65 38.8043 245.083 38.8043 244.45C38.8043 243.783 38.621 243.183 38.2543 242.65C37.8876 242.083 37.371 241.633 36.7043 241.3C36.0376 240.967 35.2043 240.8 34.2043 240.8C33.4043 240.8 32.6543 240.9 31.9543 241.1C31.2876 241.3 30.6543 241.583 30.0543 241.95C29.4876 242.317 28.9543 242.733 28.4543 243.2C27.9543 243.633 27.5043 244.1 27.1043 244.6L22.8543 239.7C23.321 239.233 23.9376 238.733 24.7043 238.2C25.5043 237.633 26.4376 237.117 27.5043 236.65C28.6043 236.15 29.8043 235.75 31.1043 235.45C32.4376 235.117 33.8543 234.95 35.3543 234.95C37.621 234.95 39.5543 235.317 41.1543 236.05C42.7543 236.75 43.971 237.733 44.8043 239C45.671 240.267 46.1043 241.75 46.1043 243.45C46.1043 244.617 45.8876 245.65 45.4543 246.55C45.021 247.45 44.471 248.25 43.8043 248.95C43.1376 249.617 42.4043 250.217 41.6043 250.75C40.8376 251.283 40.0876 251.75 39.3543 252.15C38.321 252.683 37.3876 253.183 36.5543 253.65C35.721 254.083 34.9876 254.533 34.3543 255C33.721 255.433 33.1543 255.883 32.6543 256.35C32.1876 256.817 31.771 257.35 31.4043 257.95H46.6543V264H22.5543ZM88.8887 253.5C88.8887 255.7 88.2887 257.617 87.0887 259.25C85.922 260.883 84.3553 262.167 82.3887 263.1C80.422 264 78.272 264.45 75.9387 264.45C73.572 264.45 71.4053 263.967 69.4387 263C67.5053 262.033 65.9553 260.717 64.7887 259.05C63.6553 257.35 63.0887 255.417 63.0887 253.25C63.0887 251.917 63.372 250.717 63.9387 249.65C64.5053 248.55 65.2053 247.617 66.0387 246.85C66.9053 246.05 67.772 245.433 68.6387 245C67.8387 244.6 67.0887 244.067 66.3887 243.4C65.722 242.733 65.1887 241.967 64.7887 241.1C64.3887 240.233 64.1887 239.317 64.1887 238.35C64.1887 236.783 64.5387 235.383 65.2387 234.15C65.9387 232.917 66.872 231.883 68.0387 231.05C69.2053 230.183 70.472 229.55 71.8387 229.15C73.2387 228.717 74.622 228.5 75.9887 228.5C77.322 228.5 78.6887 228.717 80.0887 229.15C81.4887 229.55 82.772 230.167 83.9387 231C85.1053 231.833 86.0387 232.867 86.7387 234.1C87.472 235.3 87.8387 236.7 87.8387 238.3C87.8387 239.233 87.622 240.15 87.1887 241.05C86.7887 241.917 86.2387 242.7 85.5387 243.4C84.872 244.067 84.1053 244.6 83.2387 245C84.2053 245.5 85.122 246.15 85.9887 246.95C86.8553 247.75 87.5553 248.7 88.0887 249.8C88.622 250.9 88.8887 252.133 88.8887 253.5ZM82.0887 253.1C82.0887 252.233 81.922 251.483 81.5887 250.85C81.2553 250.183 80.7887 249.633 80.1887 249.2C79.5887 248.733 78.922 248.383 78.1887 248.15C77.4553 247.917 76.7053 247.8 75.9387 247.8C74.872 247.8 73.872 248.017 72.9387 248.45C72.0387 248.883 71.3053 249.5 70.7387 250.3C70.172 251.1 69.8887 252.033 69.8887 253.1C69.8887 253.9 70.0553 254.633 70.3887 255.3C70.7553 255.933 71.222 256.483 71.7887 256.95C72.3887 257.417 73.0387 257.783 73.7387 258.05C74.472 258.283 75.222 258.4 75.9887 258.4C77.0553 258.4 78.0553 258.167 78.9887 257.7C79.922 257.233 80.672 256.6 81.2387 255.8C81.8053 255 82.0887 254.1 82.0887 253.1ZM70.9887 238.55C70.9887 239.45 71.2387 240.217 71.7387 240.85C72.2387 241.483 72.872 241.967 73.6387 242.3C74.4387 242.6 75.222 242.75 75.9887 242.75C76.7887 242.75 77.5553 242.583 78.2887 242.25C79.0553 241.917 79.6887 241.45 80.1887 240.85C80.722 240.217 80.9887 239.433 80.9887 238.5C80.9887 237.667 80.7553 236.95 80.2887 236.35C79.822 235.75 79.2053 235.283 78.4387 234.95C77.7053 234.617 76.872 234.45 75.9387 234.45C75.072 234.45 74.2553 234.617 73.4887 234.95C72.722 235.283 72.1053 235.767 71.6387 236.4C71.2053 237 70.9887 237.717 70.9887 238.55ZM119.314 249.35C119.314 252.283 118.748 254.9 117.614 257.2C116.514 259.467 114.981 261.25 113.014 262.55C111.081 263.85 108.881 264.5 106.414 264.5C103.948 264.5 101.731 263.85 99.7645 262.55C97.8311 261.25 96.2978 259.467 95.1645 257.2C94.0645 254.9 93.5145 252.283 93.5145 249.35C93.5145 246.417 94.0645 243.817 95.1645 241.55C96.2978 239.25 97.8311 237.45 99.7645 236.15C101.731 234.817 103.948 234.15 106.414 234.15C108.881 234.15 111.081 234.817 113.014 236.15C114.981 237.45 116.514 239.25 117.614 241.55C118.748 243.817 119.314 246.417 119.314 249.35ZM112.564 249.35C112.564 247.55 112.298 245.983 111.764 244.65C111.264 243.283 110.548 242.217 109.614 241.45C108.681 240.683 107.614 240.3 106.414 240.3C105.181 240.3 104.098 240.683 103.164 241.45C102.231 242.217 101.498 243.283 100.964 244.65C100.464 245.983 100.214 247.55 100.214 249.35C100.214 251.15 100.464 252.717 100.964 254.05C101.498 255.383 102.231 256.433 103.164 257.2C104.098 257.967 105.181 258.35 106.414 258.35C107.614 258.35 108.664 257.967 109.564 257.2C110.498 256.433 111.231 255.383 111.764 254.05C112.298 252.683 112.564 251.117 112.564 249.35ZM150.027 249.35C150.027 252.283 149.461 254.9 148.327 257.2C147.227 259.467 145.694 261.25 143.727 262.55C141.794 263.85 139.594 264.5 137.127 264.5C134.661 264.5 132.444 263.85 130.477 262.55C128.544 261.25 127.011 259.467 125.877 257.2C124.777 254.9 124.227 252.283 124.227 249.35C124.227 246.417 124.777 243.817 125.877 241.55C127.011 239.25 128.544 237.45 130.477 236.15C132.444 234.817 134.661 234.15 137.127 234.15C139.594 234.15 141.794 234.817 143.727 236.15C145.694 237.45 147.227 239.25 148.327 241.55C149.461 243.817 150.027 246.417 150.027 249.35ZM143.277 249.35C143.277 247.55 143.011 245.983 142.477 244.65C141.977 243.283 141.261 242.217 140.327 241.45C139.394 240.683 138.327 240.3 137.127 240.3C135.894 240.3 134.811 240.683 133.877 241.45C132.944 242.217 132.211 243.283 131.677 244.65C131.177 245.983 130.927 247.55 130.927 249.35C130.927 251.15 131.177 252.717 131.677 254.05C132.211 255.383 132.944 256.433 133.877 257.2C134.811 257.967 135.894 258.35 137.127 258.35C138.327 258.35 139.377 257.967 140.277 257.2C141.211 256.433 141.944 255.383 142.477 254.05C143.011 252.683 143.277 251.117 143.277 249.35Z" fill="url(#paint2_linear_14_436)"/>
<path d="M1.32 302V291.54H10.32V302H8.12V293.48H3.52V302H1.32ZM12.2202 298.94C12.2202 298.273 12.4068 297.693 12.7802 297.2C13.1668 296.693 13.6935 296.307 14.3602 296.04C15.0268 295.76 15.8002 295.62 16.6802 295.62C17.1468 295.62 17.6202 295.653 18.1002 295.72C18.5935 295.787 19.0268 295.893 19.4002 296.04V295.38C19.4002 294.647 19.1802 294.073 18.7402 293.66C18.3002 293.247 17.6668 293.04 16.8402 293.04C16.2535 293.04 15.7002 293.147 15.1802 293.36C14.6602 293.56 14.1068 293.847 13.5202 294.22L12.7802 292.74C13.4735 292.273 14.1668 291.927 14.8602 291.7C15.5668 291.473 16.3068 291.36 17.0802 291.36C18.4802 291.36 19.5802 291.733 20.3802 292.48C21.1935 293.213 21.6002 294.26 21.6002 295.62V299.52C21.6002 299.773 21.6402 299.953 21.7202 300.06C21.8135 300.167 21.9668 300.227 22.1802 300.24V302C21.9802 302.04 21.8002 302.067 21.6402 302.08C21.4802 302.093 21.3468 302.1 21.2402 302.1C20.7735 302.1 20.4202 301.987 20.1802 301.76C19.9402 301.533 19.8002 301.267 19.7602 300.96L19.7002 300.36C19.2468 300.947 18.6668 301.4 17.9602 301.72C17.2535 302.04 16.5402 302.2 15.8202 302.2C15.1268 302.2 14.5068 302.06 13.9602 301.78C13.4135 301.487 12.9868 301.093 12.6802 300.6C12.3735 300.107 12.2202 299.553 12.2202 298.94ZM18.8802 299.58C19.0402 299.407 19.1668 299.233 19.2602 299.06C19.3535 298.887 19.4002 298.733 19.4002 298.6V297.4C19.0268 297.253 18.6335 297.147 18.2202 297.08C17.8068 297 17.4002 296.96 17.0002 296.96C16.2002 296.96 15.5468 297.12 15.0402 297.44C14.5468 297.76 14.3002 298.2 14.3002 298.76C14.3002 299.067 14.3802 299.36 14.5402 299.64C14.7135 299.92 14.9535 300.147 15.2602 300.32C15.5802 300.493 15.9735 300.58 16.4402 300.58C16.9202 300.58 17.3802 300.487 17.8202 300.3C18.2602 300.113 18.6135 299.873 18.8802 299.58ZM32.4692 304.5V302H24.2692V291.54H26.4692V300.08H30.7492V291.54H32.9492V300.08H34.4092V304.5H32.4692ZM36.2614 302V291.56H38.4614V299.06L43.7614 291.54H45.7614V302H43.5614V294.66L38.3214 302H36.2614ZM53.1303 302.2C52.317 302.2 51.577 302.06 50.9103 301.78C50.257 301.487 49.6903 301.093 49.2103 300.6C48.7303 300.093 48.357 299.52 48.0903 298.88C47.837 298.227 47.7103 297.533 47.7103 296.8C47.7103 295.813 47.937 294.913 48.3903 294.1C48.8436 293.273 49.477 292.613 50.2903 292.12C51.1036 291.613 52.057 291.36 53.1503 291.36C54.2436 291.36 55.1836 291.613 55.9703 292.12C56.7703 292.613 57.3903 293.267 57.8303 294.08C58.2703 294.893 58.4903 295.767 58.4903 296.7C58.4903 296.86 58.4836 297.013 58.4703 297.16C58.457 297.293 58.4436 297.407 58.4303 297.5H50.0503C50.0903 298.113 50.257 298.653 50.5503 299.12C50.857 299.573 51.2436 299.933 51.7103 300.2C52.177 300.453 52.677 300.58 53.2103 300.58C53.797 300.58 54.3503 300.433 54.8703 300.14C55.4036 299.847 55.7636 299.46 55.9503 298.98L57.8303 299.52C57.6036 300.027 57.257 300.487 56.7903 300.9C56.337 301.3 55.797 301.62 55.1703 301.86C54.5436 302.087 53.8636 302.2 53.1303 302.2ZM49.9903 296.04H56.3103C56.2703 295.44 56.097 294.913 55.7903 294.46C55.497 293.993 55.117 293.633 54.6503 293.38C54.197 293.113 53.6903 292.98 53.1303 292.98C52.5836 292.98 52.077 293.113 51.6103 293.38C51.157 293.633 50.7836 293.993 50.4903 294.46C50.197 294.913 50.0303 295.44 49.9903 296.04ZM60.2848 302V291.54H62.4848V295.7H67.3448V291.54H69.5448V302H67.3448V297.6H62.4848V302H60.2848ZM74.6789 302V293.48H71.2189V291.54H80.3589V293.48H76.8789V302H74.6789ZM86.7036 302.2C85.8769 302.2 85.1369 302.06 84.4836 301.78C83.8303 301.487 83.2636 301.087 82.7836 300.58C82.3169 300.073 81.9569 299.5 81.7036 298.86C81.4503 298.207 81.3236 297.513 81.3236 296.78C81.3236 296.047 81.4503 295.353 81.7036 294.7C81.9569 294.047 82.3169 293.473 82.7836 292.98C83.2636 292.473 83.8303 292.08 84.4836 291.8C85.1503 291.507 85.8903 291.36 86.7036 291.36C87.5169 291.36 88.2503 291.507 88.9036 291.8C89.5703 292.08 90.1369 292.473 90.6036 292.98C91.0836 293.473 91.4503 294.047 91.7036 294.7C91.9569 295.353 92.0836 296.047 92.0836 296.78C92.0836 297.513 91.9569 298.207 91.7036 298.86C91.4503 299.5 91.0836 300.073 90.6036 300.58C90.1369 301.087 89.5703 301.487 88.9036 301.78C88.2503 302.06 87.5169 302.2 86.7036 302.2ZM83.5836 296.8C83.5836 297.467 83.7236 298.067 84.0036 298.6C84.2836 299.133 84.6569 299.553 85.1236 299.86C85.5903 300.167 86.1169 300.32 86.7036 300.32C87.2769 300.32 87.7969 300.167 88.2636 299.86C88.7436 299.54 89.1236 299.113 89.4036 298.58C89.6836 298.033 89.8236 297.433 89.8236 296.78C89.8236 296.113 89.6836 295.513 89.4036 294.98C89.1236 294.447 88.7436 294.027 88.2636 293.72C87.7969 293.4 87.2769 293.24 86.7036 293.24C86.1169 293.24 85.5903 293.4 85.1236 293.72C84.6569 294.04 84.2836 294.467 84.0036 295C83.7236 295.52 83.5836 296.12 83.5836 296.8ZM94.0348 302V291.54H99.6348C100.302 291.54 100.848 291.667 101.275 291.92C101.715 292.16 102.042 292.473 102.255 292.86C102.468 293.233 102.575 293.647 102.575 294.1C102.575 294.673 102.442 295.18 102.175 295.62C101.908 296.06 101.515 296.393 100.995 296.62C101.595 296.793 102.082 297.1 102.455 297.54C102.842 297.967 103.035 298.52 103.035 299.2C103.035 299.813 102.888 300.333 102.595 300.76C102.302 301.173 101.882 301.487 101.335 301.7C100.802 301.9 100.175 302 99.4548 302H94.0348ZM96.1148 300.48H99.3948C99.6748 300.48 99.9282 300.413 100.155 300.28C100.395 300.133 100.582 299.947 100.715 299.72C100.848 299.48 100.915 299.227 100.915 298.96C100.915 298.667 100.848 298.407 100.715 298.18C100.595 297.953 100.422 297.773 100.195 297.64C99.9815 297.507 99.7282 297.44 99.4348 297.44H96.1148V300.48ZM96.1148 296.02H99.0748C99.3548 296.02 99.6015 295.953 99.8148 295.82C100.028 295.673 100.195 295.48 100.315 295.24C100.435 295 100.495 294.747 100.495 294.48C100.495 294.093 100.368 293.76 100.115 293.48C99.8615 293.2 99.5282 293.06 99.1148 293.06H96.1148V296.02Z" fill="#717992"/>
<defs>
<linearGradient id="paint0_linear_14_436" x1="76.5" y1="0" x2="76.5" y2="60" gradientUnits="userSpaceOnUse">
<stop stop-color="#3BB96D"/>
<stop offset="1" stop-color="#279A59"/>
</linearGradient>
<linearGradient id="paint1_linear_14_436" x1="76.5" y1="108" x2="76.5" y2="168" gradientUnits="userSpaceOnUse">
<stop stop-color="#3BB96D"/>
<stop offset="1" stop-color="#279A59"/>
</linearGradient>
<linearGradient id="paint2_linear_14_436" x1="76.5" y1="216" x2="76.5" y2="276" gradientUnits="userSpaceOnUse">
<stop stop-color="#3BB96D"/>
<stop offset="1" stop-color="#279A59"/>
</linearGradient>
</defs>
</svg>
