<svg width="70" height="30" viewBox="0 0 70 30" fill="none" xmlns="http://www.w3.org/2000/svg">
<circle cx="15" cy="15" r="14.5" stroke="url(#paint0_linear_7_133)"/>
<path fill-rule="evenodd" clip-rule="evenodd" d="M17.1031 9.10524C16.7124 8.71555 16.08 8.71595 15.6898 9.10613L10.7031 14.0928C10.3126 14.4833 10.3126 15.1165 10.7031 15.507L15.6898 20.4937C16.08 20.8839 16.7124 20.8843 17.1031 20.4946L17.2908 20.3073C17.6823 19.9168 17.6826 19.2827 17.2914 18.8919L13.904 15.5073C13.5131 15.1167 13.5131 14.4831 13.904 14.0925L17.2914 10.7079C17.6826 10.3171 17.6823 9.683 17.2908 9.2925L17.1031 9.10524Z" fill="url(#paint1_linear_7_133)"/>
<circle cx="15" cy="15" r="15" transform="matrix(-1 0 0 1 70 0)" fill="url(#paint2_linear_7_133)"/>
<path fill-rule="evenodd" clip-rule="evenodd" d="M52.8969 9.10524C53.2876 8.71555 53.92 8.71595 54.3102 9.10613L59.2969 14.0928C59.6874 14.4833 59.6874 15.1165 59.2969 15.507L54.3102 20.4937C53.92 20.8839 53.2876 20.8843 52.8969 20.4946L52.7092 20.3073C52.3177 19.9168 52.3174 19.2827 52.7086 18.8919L56.096 15.5073C56.4869 15.1167 56.4869 14.4831 56.096 14.0925L52.7086 10.7079C52.3174 10.3171 52.3177 9.683 52.7092 9.2925L52.8969 9.10524Z" fill="white"/>
<defs>
<linearGradient id="paint0_linear_7_133" x1="15" y1="0" x2="15" y2="30" gradientUnits="userSpaceOnUse">
<stop stop-color="#3BB96D"/>
<stop offset="1" stop-color="#279A59"/>
</linearGradient>
<linearGradient id="paint1_linear_7_133" x1="13.998" y1="8.3999" x2="13.998" y2="21.1999" gradientUnits="userSpaceOnUse">
<stop stop-color="#3BB96D"/>
<stop offset="1" stop-color="#279A59"/>
</linearGradient>
<linearGradient id="paint2_linear_7_133" x1="15" y1="0" x2="15" y2="30" gradientUnits="userSpaceOnUse">
<stop stop-color="#3BB96D"/>
<stop offset="1" stop-color="#279A59"/>
</linearGradient>
</defs>
</svg>
